<svg id="svg" version="1.1" xmlns="http://www.w3.org/2000/svg" xmlns:xlink="http://www.w3.org/1999/xlink" width="400" height="217.14285714285714" viewBox="0, 0, 400,217.14285714285714"><g id="svgg"><path id="path0" d="M199.783 71.336 L 199.783 79.913 208.415 79.911 C 213.162 79.909,223.521 79.972,231.433 80.050 L 245.820 80.192 245.820 77.230 L 245.820 74.267 237.242 74.267 L 228.664 74.267 228.664 68.512 L 228.664 62.758 214.224 62.758 L 199.783 62.758 199.783 71.336 " stroke="none" fill="#d50000" fill-rule="evenodd"></path><path id="path1" d="M388.491 71.336 L 388.491 74.267 391.422 74.267 L 394.354 74.267 394.354 71.336 L 394.354 68.404 391.422 68.404 L 388.491 68.404 388.491 71.336 M199.783 88.488 L 199.783 97.068 202.714 97.068 L 205.646 97.068 205.646 94.252 L 205.646 91.435 208.523 91.374 L 211.401 91.314 211.461 88.545 L 211.522 85.776 214.345 85.776 L 217.168 85.776 217.107 82.899 L 217.047 80.022 208.415 79.965 L 199.783 79.908 199.783 88.488 M394.354 125.733 L 394.354 131.596 397.177 131.596 L 400.000 131.596 400.000 125.733 L 400.000 119.870 397.177 119.870 L 394.354 119.870 394.354 125.733 M388.491 180.130 L 388.491 183.062 391.422 183.062 L 394.354 183.062 394.354 180.130 L 394.354 177.199 391.422 177.199 L 388.491 177.199 388.491 180.130 M97.068 185.668 L 97.068 188.491 94.137 188.491 L 91.205 188.491 91.205 194.354 L 91.205 200.217 94.137 200.217 L 97.068 200.217 97.068 203.040 L 97.068 205.863 102.932 205.863 L 108.795 205.863 108.795 203.040 L 108.795 200.217 111.618 200.217 L 114.441 200.217 114.441 194.354 L 114.441 188.491 111.618 188.491 L 108.795 188.491 108.795 185.668 L 108.795 182.845 102.932 182.845 L 97.068 182.845 97.068 185.668 M314.224 185.668 L 314.224 188.491 311.292 188.491 L 308.360 188.491 308.360 191.314 L 308.360 194.137 305.537 194.137 L 302.714 194.137 302.714 200.000 L 302.714 205.863 305.537 205.863 L 308.360 205.863 308.360 208.686 L 308.360 211.509 311.292 211.509 L 314.224 211.509 314.224 214.332 L 314.224 217.155 320.087 217.155 L 325.950 217.155 325.950 214.332 L 325.950 211.509 328.773 211.509 L 331.596 211.509 331.596 208.686 L 331.596 205.863 334.419 205.863 L 337.242 205.863 337.242 200.000 L 337.242 194.137 334.419 194.137 L 331.596 194.137 331.596 191.314 L 331.596 188.491 328.773 188.491 L 325.950 188.491 325.950 185.668 L 325.950 182.845 320.087 182.845 L 314.224 182.845 314.224 185.668 " stroke="none" fill="#000000" fill-rule="evenodd"></path><path id="path2" d="M217.155 82.953 L 217.155 85.776 214.332 85.776 L 211.509 85.776 211.509 88.599 L 211.509 91.422 208.693 91.422 L 205.876 91.422 205.815 94.300 L 205.755 97.177 202.765 97.237 L 199.776 97.298 199.833 102.883 L 199.891 108.469 214.278 108.525 L 228.664 108.581 228.664 102.933 L 228.664 97.286 231.488 97.286 L 234.311 97.286 234.311 94.245 L 234.311 91.205 231.488 91.205 L 228.664 91.205 228.664 85.668 L 228.664 80.130 222.910 80.130 L 217.155 80.130 217.155 82.953 " stroke="none" fill="#ffd180" fill-rule="evenodd"></path><path id="path3" d="M148.534 2.823 L 148.534 5.646 145.603 5.646 L 142.671 5.646 142.671 8.469 L 142.671 11.292 139.848 11.292 L 137.025 11.292 137.025 14.115 L 137.025 16.938 134.202 16.938 L 131.379 16.938 131.379 19.870 L 131.379 22.801 128.447 22.801 L 125.516 22.801 125.516 25.733 L 125.516 28.664 128.447 28.664 L 131.379 28.664 131.379 31.488 L 131.379 34.311 205.755 34.311 L 280.130 34.311 280.130 31.488 L 280.130 28.664 282.953 28.664 L 285.776 28.664 285.776 25.733 L 285.776 22.801 274.376 22.801 L 262.975 22.801 262.975 19.870 L 262.975 16.938 251.574 16.938 L 240.174 16.938 240.174 14.115 L 240.174 11.292 225.841 11.292 L 211.509 11.292 211.509 8.469 L 211.509 5.646 197.286 5.646 L 183.062 5.646 183.062 2.823 L 183.062 0.000 165.798 0.000 L 148.534 0.000 148.534 2.823 M0.000 45.603 L 0.000 62.758 2.823 62.759 C 4.376 62.760,12.096 62.761,19.978 62.761 C 27.861 62.761,35.630 62.760,37.242 62.759 L 40.174 62.758 40.174 59.935 L 40.174 57.112 34.419 57.112 L 28.664 57.112 28.664 48.534 L 28.664 39.957 20.087 39.957 L 11.509 39.957 11.509 34.202 L 11.509 28.447 5.755 28.447 L 0.000 28.447 0.000 45.603 M37.131 80.072 L 39.952 80.143 40.008 88.660 L 40.065 97.177 42.831 97.238 L 45.598 97.298 45.657 105.815 L 45.716 114.332 45.768 105.700 L 45.820 97.068 42.999 97.068 L 40.179 97.068 40.122 88.545 L 40.065 80.022 37.188 80.012 L 34.310 80.002 37.131 80.072 M159.921 85.843 C 159.861 85.999,159.843 87.342,159.881 88.829 L 159.950 91.531 159.996 88.656 L 160.043 85.780 171.498 85.722 L 182.953 85.664 171.492 85.612 C 162.225 85.569,160.009 85.613,159.921 85.843 M260.002 85.722 C 261.652 85.759,264.290 85.758,265.865 85.721 C 267.441 85.684,266.091 85.654,262.866 85.654 C 259.642 85.654,258.353 85.685,260.002 85.722 M285.607 85.721 L 297.056 85.780 297.127 88.656 L 297.197 91.531 297.187 88.599 L 297.177 85.668 285.668 85.665 L 274.159 85.662 285.607 85.721 M137.072 94.187 L 137.025 97.061 131.325 97.123 L 125.624 97.185 131.331 97.235 C 135.862 97.275,137.061 97.227,137.147 97.002 C 137.207 96.846,137.225 95.503,137.188 94.016 L 137.119 91.314 137.072 94.187 M339.896 97.231 L 354.167 97.289 354.228 100.056 L 354.289 102.823 357.220 102.833 L 360.152 102.843 357.275 102.773 L 354.397 102.702 354.397 99.885 L 354.397 97.068 340.011 97.121 L 325.624 97.174 339.896 97.231 M112.743 102.877 C 115.094 102.912,119.003 102.912,121.430 102.877 C 123.856 102.842,121.933 102.813,117.155 102.813 C 112.378 102.813,110.393 102.842,112.743 102.877 M97.153 111.401 C 97.153 113.013,97.188 113.673,97.229 112.866 C 97.271 112.060,97.271 110.741,97.229 109.935 C 97.188 109.129,97.153 109.788,97.153 111.401 M371.336 125.618 L 371.336 137.012 368.458 137.080 L 365.581 137.147 368.567 137.195 L 371.553 137.242 371.553 125.733 C 371.553 119.403,371.504 114.224,371.444 114.224 C 371.384 114.224,371.336 119.351,371.336 125.618 M2.877 120.039 L 0.000 120.099 0.000 128.671 L 0.000 137.243 34.256 137.189 L 68.512 137.134 68.570 131.433 L 68.628 125.733 51.469 125.733 L 34.311 125.733 34.311 122.913 L 34.311 120.093 20.033 120.036 C 12.180 120.004,4.460 120.006,2.877 120.039 M154.325 125.878 C 154.245 125.957,154.180 127.228,154.180 128.701 L 154.180 131.379 151.357 131.379 L 148.534 131.379 148.534 134.311 L 148.534 137.242 145.711 137.242 L 142.888 137.242 142.888 140.065 L 142.888 142.888 140.065 142.888 L 137.242 142.888 137.242 145.711 L 137.242 148.534 134.304 148.534 L 131.366 148.534 131.427 151.412 L 131.488 154.289 134.365 154.349 L 137.242 154.410 137.242 157.227 L 137.242 160.043 211.509 160.043 L 285.776 160.043 285.776 157.227 L 285.776 154.410 288.545 154.350 L 291.314 154.289 291.374 151.412 L 291.435 148.534 280.028 148.534 L 268.621 148.534 268.621 145.711 L 268.621 142.888 257.220 142.888 L 245.820 142.888 245.820 140.065 L 245.820 137.242 231.488 137.242 L 217.155 137.242 217.155 134.311 L 217.155 131.379 202.823 131.379 L 188.491 131.379 188.491 128.556 L 188.491 125.733 171.480 125.733 C 162.125 125.733,154.405 125.798,154.325 125.878 M11.391 145.765 L 11.401 148.643 14.224 148.652 L 17.047 148.662 14.284 148.592 L 11.522 148.522 11.451 145.705 L 11.381 142.888 11.391 145.765 M354.180 151.355 L 354.180 154.175 345.657 154.232 L 337.134 154.289 337.124 157.112 L 337.115 159.935 337.185 157.166 L 337.255 154.397 345.826 154.397 L 354.397 154.397 354.397 151.581 L 354.397 148.764 357.275 148.697 L 360.152 148.629 357.166 148.582 L 354.180 148.534 354.180 151.355 M18.512 154.341 C 19.319 154.383,20.638 154.383,21.444 154.341 C 22.250 154.299,21.591 154.265,19.978 154.265 C 18.366 154.265,17.706 154.299,18.512 154.341 M45.650 162.809 L 45.603 165.682 39.902 165.744 L 34.202 165.806 39.909 165.856 C 44.440 165.896,45.639 165.848,45.725 165.623 C 45.785 165.467,45.803 164.124,45.765 162.637 L 45.697 159.935 45.650 162.809 M80.012 162.920 L 80.022 165.798 88.545 165.855 L 97.068 165.912 97.068 168.732 L 97.068 171.553 111.455 171.500 L 125.841 171.447 111.570 171.390 L 97.299 171.332 97.238 168.565 L 97.177 165.798 88.660 165.741 L 80.143 165.684 80.072 162.864 L 80.002 160.043 80.012 162.920 M314.224 168.511 L 314.224 171.332 300.000 171.391 L 285.776 171.449 300.054 171.446 L 314.332 171.444 314.393 168.679 L 314.454 165.914 320.039 165.852 L 325.624 165.790 319.924 165.740 L 314.224 165.689 314.224 168.511 M262.843 180.022 C 262.843 181.634,262.877 182.294,262.919 181.488 C 262.961 180.681,262.961 179.362,262.919 178.556 C 262.877 177.750,262.843 178.409,262.843 180.022 M188.538 185.831 L 188.491 188.708 220.033 188.654 L 251.574 188.601 220.148 188.545 L 188.721 188.489 188.653 185.721 L 188.585 182.953 188.538 185.831 " stroke="none" fill="#1565c0" fill-rule="evenodd"></path><path id="path4" d="M5.747 63.028 C 5.690 63.178,5.668 76.053,5.699 91.640 L 5.755 119.978 20.033 120.034 L 34.311 120.090 34.311 122.911 L 34.311 125.733 51.469 125.733 L 68.628 125.733 68.570 131.433 L 68.512 137.134 37.073 137.189 L 5.633 137.244 5.694 140.012 L 5.755 142.780 8.632 142.840 L 11.509 142.901 11.509 145.717 L 11.509 148.534 14.332 148.534 L 17.155 148.534 17.155 151.357 L 17.155 154.180 19.972 154.180 L 22.789 154.180 22.849 157.058 L 22.910 159.935 28.610 159.993 L 34.311 160.051 34.311 162.870 L 34.311 165.689 39.957 165.689 L 45.603 165.689 45.603 162.866 L 45.603 160.043 62.866 160.043 L 80.130 160.043 80.130 162.864 L 80.130 165.684 88.654 165.741 L 97.177 165.798 97.238 168.567 L 97.299 171.336 111.516 171.336 L 125.733 171.336 125.733 174.267 L 125.733 177.199 145.711 177.199 L 165.689 177.199 165.689 180.020 L 165.689 182.841 177.144 182.897 L 188.599 182.953 188.660 185.722 L 188.721 188.491 220.093 188.491 L 251.466 188.491 251.466 185.668 L 251.466 182.845 257.112 182.845 L 262.758 182.845 262.758 180.024 L 262.758 177.203 274.213 177.146 L 285.668 177.090 285.728 174.213 L 285.789 171.336 300.006 171.336 L 314.224 171.336 314.224 168.512 L 314.224 165.689 319.978 165.689 L 325.733 165.689 325.733 162.866 L 325.733 160.043 331.373 160.043 L 337.012 160.043 337.073 157.166 L 337.134 154.289 345.657 154.232 L 354.180 154.175 354.180 151.355 L 354.180 148.534 357.112 148.534 L 360.043 148.534 360.043 145.711 L 360.043 142.888 362.866 142.888 L 365.689 142.888 365.689 139.957 L 365.689 137.025 368.512 137.025 L 371.336 137.025 371.336 125.624 L 371.336 114.224 368.512 114.224 L 365.689 114.224 365.689 111.401 L 365.689 108.578 362.866 108.578 L 360.043 108.578 360.043 105.761 L 360.043 102.944 357.166 102.884 L 354.289 102.823 354.228 100.054 L 354.167 97.286 339.950 97.286 L 325.733 97.286 325.733 94.354 L 325.733 91.422 311.401 91.422 L 297.068 91.422 297.068 88.599 L 297.068 85.776 285.668 85.776 L 274.267 85.776 274.267 117.155 L 274.267 148.534 282.851 148.534 L 291.435 148.534 291.374 151.412 L 291.314 154.289 288.545 154.350 L 285.776 154.410 285.776 157.227 L 285.776 160.043 211.509 160.043 L 137.242 160.043 137.242 157.227 L 137.242 154.410 134.365 154.349 L 131.488 154.289 131.427 151.412 L 131.366 148.534 134.304 148.534 L 137.242 148.534 137.242 145.711 L 137.242 142.888 140.065 142.888 L 142.888 142.888 142.888 117.155 L 142.888 91.422 140.071 91.422 L 137.255 91.422 137.194 94.300 L 137.134 97.177 131.433 97.235 L 125.733 97.293 125.733 100.112 L 125.733 102.932 117.155 102.932 L 108.578 102.932 108.578 105.755 L 108.578 108.578 102.932 108.578 L 97.286 108.578 97.286 111.401 L 97.286 114.224 71.444 114.224 L 45.603 114.224 45.603 105.761 L 45.603 97.299 42.834 97.238 L 40.065 97.177 40.008 88.654 L 39.952 80.130 37.134 80.130 L 34.316 80.130 34.259 71.498 L 34.202 62.866 20.026 62.811 C 8.801 62.766,5.829 62.812,5.747 63.028 M160.043 88.599 L 160.043 91.422 154.289 91.422 L 148.534 91.422 148.534 111.401 L 148.534 131.379 151.351 131.379 L 154.167 131.379 154.228 128.610 L 154.289 125.841 171.390 125.786 L 188.491 125.730 188.491 128.555 L 188.491 131.379 202.823 131.379 L 217.155 131.379 217.155 134.311 L 217.155 137.242 231.488 137.242 L 245.820 137.242 245.820 140.065 L 245.820 142.888 257.220 142.888 L 268.621 142.888 268.621 114.332 L 268.621 85.776 262.866 85.776 L 257.112 85.776 257.112 100.000 L 257.112 114.224 219.978 114.224 L 182.845 114.224 182.845 100.000 L 182.845 85.776 171.444 85.776 L 160.043 85.776 160.043 88.599 " stroke="none" fill="#00bcd4" fill-rule="evenodd"></path><path id="path5" d="M0.000 91.422 L 0.000 120.087 2.823 120.087 L 5.646 120.087 5.646 91.422 L 5.646 62.758 2.823 62.758 L 0.000 62.758 0.000 91.422 M34.311 71.329 L 34.311 79.901 37.188 79.961 L 40.065 80.022 40.122 88.545 L 40.179 97.068 42.999 97.068 L 45.820 97.068 45.820 105.646 L 45.820 114.224 71.444 114.224 L 97.068 114.224 97.068 111.401 L 97.068 108.578 102.823 108.578 L 108.578 108.578 108.578 105.646 L 108.578 102.714 117.155 102.714 L 125.733 102.714 125.733 99.891 L 125.733 97.068 131.379 97.068 L 137.025 97.068 137.025 94.245 L 137.025 91.422 139.963 91.422 L 142.901 91.422 142.840 88.545 L 142.780 85.668 137.079 85.610 L 131.379 85.552 131.379 88.379 L 131.379 91.205 125.624 91.205 L 119.870 91.205 119.870 94.137 L 119.870 97.068 111.292 97.068 L 102.714 97.068 102.714 99.891 L 102.714 102.714 96.960 102.714 L 91.205 102.714 91.205 105.537 L 91.205 108.360 71.336 108.360 L 51.466 108.360 51.466 99.783 L 51.466 91.205 48.643 91.205 L 45.820 91.205 45.820 82.736 L 45.820 74.267 42.997 74.267 L 40.174 74.267 40.174 68.512 L 40.174 62.758 37.242 62.758 L 34.311 62.758 34.311 71.329 M154.180 82.730 L 154.180 85.546 151.412 85.607 L 148.643 85.668 148.582 88.545 L 148.522 91.422 154.168 91.422 L 159.814 91.422 159.874 88.545 L 159.935 85.668 171.390 85.612 L 182.845 85.555 182.845 99.890 L 182.845 114.224 219.978 114.224 L 257.112 114.224 257.112 99.891 L 257.112 85.559 262.873 85.559 L 268.634 85.559 268.573 82.790 L 268.512 80.022 259.881 79.965 L 251.249 79.908 251.249 94.104 L 251.249 108.300 230.299 108.461 C 218.777 108.549,204.705 108.549,199.029 108.461 L 188.708 108.301 188.708 94.107 L 188.708 79.913 171.444 79.913 L 154.180 79.913 154.180 82.730 M274.267 82.734 L 274.267 85.555 285.722 85.612 L 297.177 85.668 297.238 88.545 L 297.298 91.422 311.516 91.422 L 325.733 91.422 325.733 94.245 L 325.733 97.068 340.065 97.068 L 354.397 97.068 354.397 99.891 L 354.397 102.714 357.220 102.714 L 360.043 102.714 360.043 105.646 L 360.043 108.578 362.866 108.578 L 365.689 108.578 365.689 111.401 L 365.689 114.224 368.621 114.224 L 371.553 114.224 371.553 125.733 L 371.553 137.242 368.621 137.242 L 365.689 137.242 365.689 140.065 L 365.689 142.888 362.866 142.888 L 360.043 142.888 360.043 145.820 L 360.043 148.751 357.220 148.751 L 354.397 148.751 354.397 151.574 L 354.397 154.397 345.820 154.397 L 337.242 154.397 337.242 157.220 L 337.242 160.043 331.494 160.043 L 325.746 160.043 325.685 162.921 L 325.624 165.798 320.039 165.856 L 314.454 165.914 314.393 168.679 L 314.332 171.444 300.054 171.500 L 285.776 171.556 285.776 174.377 L 285.776 177.199 274.376 177.199 L 262.975 177.199 262.975 180.022 L 262.975 182.845 257.220 182.845 L 251.466 182.845 251.466 185.776 L 251.466 188.708 219.978 188.708 L 188.491 188.708 188.491 185.776 L 188.491 182.845 177.090 182.845 L 165.689 182.845 165.689 180.022 L 165.689 177.199 145.711 177.199 L 125.733 177.199 125.733 174.376 L 125.733 171.553 111.401 171.553 L 97.068 171.553 97.068 168.732 L 97.068 165.912 88.545 165.855 L 80.022 165.798 79.961 162.921 L 79.901 160.043 62.866 160.043 L 45.832 160.043 45.772 162.921 L 45.711 165.798 40.011 165.856 L 34.311 165.914 34.311 162.979 L 34.311 160.043 28.556 160.043 L 22.801 160.043 22.801 157.220 L 22.801 154.397 19.978 154.397 L 17.155 154.397 17.155 151.581 L 17.155 148.764 14.278 148.703 L 11.401 148.643 11.340 145.765 L 11.279 142.888 8.463 142.888 L 5.646 142.888 5.646 140.065 L 5.646 137.242 2.823 137.242 L 0.000 137.242 0.000 142.997 L 0.000 148.751 2.823 148.751 L 5.646 148.751 5.646 151.574 L 5.646 154.397 8.469 154.397 L 11.292 154.397 11.292 157.220 L 11.292 160.043 14.115 160.043 L 16.938 160.043 16.938 162.975 L 16.938 165.907 22.693 165.907 L 28.447 165.907 28.447 168.730 L 28.447 171.553 39.957 171.553 L 51.466 171.553 51.466 168.730 L 51.466 165.907 62.751 165.907 L 74.037 165.907 74.098 168.675 L 74.159 171.444 82.682 171.501 L 91.205 171.558 91.205 174.378 L 91.205 177.199 105.537 177.199 L 119.870 177.199 119.870 180.130 L 119.870 183.062 139.848 183.062 L 159.826 183.062 159.826 185.885 L 159.826 188.708 171.227 188.708 L 182.628 188.708 182.628 191.531 L 182.628 194.354 219.978 194.354 L 257.329 194.354 257.329 191.531 L 257.329 188.708 262.975 188.708 L 268.621 188.708 268.621 185.885 L 268.621 183.062 280.130 183.062 L 291.640 183.062 291.640 180.132 L 291.640 177.202 305.809 177.146 L 319.978 177.090 320.039 174.206 L 320.100 171.323 322.862 171.383 L 325.624 171.444 325.738 177.199 L 325.852 182.953 325.901 177.253 L 325.950 171.553 328.773 171.553 L 331.596 171.553 331.596 168.730 L 331.596 165.907 337.242 165.907 L 342.888 165.907 342.888 162.975 L 342.888 160.043 351.466 160.043 L 360.043 160.043 360.043 157.220 L 360.043 154.397 362.975 154.397 L 365.907 154.397 365.907 151.574 L 365.907 148.751 368.730 148.751 L 371.553 148.751 371.553 145.820 L 371.553 142.888 374.376 142.888 L 377.199 142.888 377.199 140.065 L 377.199 137.242 382.845 137.242 L 388.491 137.242 388.491 125.733 L 388.491 114.224 382.845 114.224 L 377.199 114.224 377.199 111.292 L 377.199 108.360 374.376 108.360 L 371.553 108.360 371.553 105.537 L 371.553 102.714 368.730 102.714 L 365.907 102.714 365.907 99.891 L 365.907 97.068 362.975 97.068 L 360.043 97.068 360.043 94.137 L 360.043 91.205 345.820 91.205 L 331.596 91.205 331.596 88.382 L 331.596 85.559 317.264 85.559 L 302.932 85.559 302.932 82.736 L 302.932 79.913 288.599 79.913 L 274.267 79.913 274.267 82.734 " stroke="none" fill="#0d47a1" fill-rule="evenodd"></path><path id="path6" d="M142.671 47.177 C 142.671 54.254,142.736 77.413,142.816 98.643 L 142.960 137.242 145.747 137.242 L 148.534 137.242 148.534 124.376 C 148.534 117.299,148.599 94.140,148.679 72.910 L 148.823 34.311 145.747 34.311 L 142.671 34.311 142.671 47.177 M268.476 68.675 C 268.556 87.576,268.621 113.276,268.621 125.787 L 268.621 148.534 271.444 148.534 L 274.267 148.534 274.267 125.660 C 274.267 113.080,274.332 87.379,274.412 68.549 L 274.556 34.311 271.444 34.311 L 268.332 34.311 268.476 68.675 M388.491 125.733 L 388.491 177.199 391.422 177.199 L 394.354 177.199 394.354 125.733 L 394.354 74.267 391.422 74.267 L 388.491 74.267 388.491 125.733 M219.924 80.075 C 221.507 80.113,224.096 80.113,225.679 80.075 C 227.261 80.038,225.966 80.008,222.801 80.008 C 219.636 80.008,218.341 80.038,219.924 80.075 M205.693 94.185 L 205.646 97.056 202.660 97.123 L 199.674 97.190 202.667 97.238 C 206.196 97.294,205.900 97.598,205.809 94.016 L 205.740 91.314 205.693 94.185 M320.039 174.206 L 319.978 177.090 317.101 177.151 L 314.224 177.211 314.224 180.028 L 314.224 182.845 319.982 182.845 L 325.740 182.845 325.682 177.144 L 325.624 171.444 322.862 171.383 L 320.100 171.323 320.039 174.206 M97.068 180.022 L 97.068 182.845 102.932 182.845 L 108.795 182.845 108.795 180.022 L 108.795 177.199 102.932 177.199 L 97.068 177.199 97.068 180.022 " stroke="none" fill="#607d8b" fill-rule="evenodd"></path></g></svg>