<svg id="svg" version="1.1" xmlns="http://www.w3.org/2000/svg" xmlns:xlink="http://www.w3.org/1999/xlink" width="400" height="2270.588235294118" viewBox="0, 0, 400,2270.588235294118"><g id="svgg"><path id="path0" d="M47.393 135.545 L 47.393 223.697 111.848 223.697 L 176.303 223.697 176.303 135.545 L 176.303 47.393 111.848 47.393 L 47.393 47.393 47.393 135.545 M223.697 135.545 L 223.697 223.697 288.152 223.697 L 352.607 223.697 352.607 135.545 L 352.607 47.393 288.152 47.393 L 223.697 47.393 223.697 135.545 M164.929 64.929 L 164.929 71.090 158.768 71.090 L 152.607 71.090 152.607 76.777 L 152.607 82.464 146.919 82.464 L 141.232 82.464 141.232 88.152 L 141.232 93.839 135.545 93.839 L 129.858 93.839 129.858 100.000 L 129.858 106.161 123.697 106.161 L 117.536 106.161 117.536 111.848 L 117.536 117.536 111.848 117.536 L 106.161 117.536 106.161 123.697 L 106.161 129.858 100.000 129.858 L 93.839 129.858 93.839 135.545 L 93.839 141.232 88.152 141.232 L 82.464 141.232 82.464 147.393 L 82.464 153.555 76.303 153.555 L 70.142 153.555 70.142 159.242 L 70.142 164.929 64.455 164.929 L 58.768 164.929 58.768 159.242 L 58.768 153.555 64.455 153.555 L 70.142 153.555 70.142 147.393 L 70.142 141.232 76.303 141.232 L 82.464 141.232 82.464 135.545 L 82.464 129.858 88.152 129.858 L 93.839 129.858 93.839 123.697 L 93.839 117.536 100.000 117.536 L 106.161 117.536 106.161 111.848 L 106.161 106.161 111.848 106.161 L 117.536 106.161 117.536 100.000 L 117.536 93.839 123.697 93.839 L 129.858 93.839 129.858 88.152 L 129.858 82.464 135.545 82.464 L 141.232 82.464 141.232 76.777 L 141.232 71.090 146.919 71.090 L 152.607 71.090 152.607 64.929 L 152.607 58.768 158.768 58.768 L 164.929 58.768 164.929 64.929 M341.232 64.929 L 341.232 71.090 335.545 71.090 L 329.858 71.090 329.858 76.777 L 329.858 82.464 323.697 82.464 L 317.536 82.464 317.536 88.152 L 317.536 93.839 311.848 93.839 L 306.161 93.839 306.161 100.000 L 306.161 106.161 300.000 106.161 L 293.839 106.161 293.839 111.848 L 293.839 117.536 288.152 117.536 L 282.464 117.536 282.464 123.697 L 282.464 129.858 276.303 129.858 L 270.142 129.858 270.142 135.545 L 270.142 141.232 264.455 141.232 L 258.768 141.232 258.768 147.393 L 258.768 153.555 253.081 153.555 L 247.393 153.555 247.393 159.242 L 247.393 164.929 241.232 164.929 L 235.071 164.929 235.071 159.242 L 235.071 153.555 241.232 153.555 L 247.393 153.555 247.393 147.393 L 247.393 141.232 253.081 141.232 L 258.768 141.232 258.768 135.545 L 258.768 129.858 264.455 129.858 L 270.142 129.858 270.142 123.697 L 270.142 117.536 276.303 117.536 L 282.464 117.536 282.464 111.848 L 282.464 106.161 288.152 106.161 L 293.839 106.161 293.839 100.000 L 293.839 93.839 300.000 93.839 L 306.161 93.839 306.161 88.152 L 306.161 82.464 311.848 82.464 L 317.536 82.464 317.536 76.777 L 317.536 71.090 323.697 71.090 L 329.858 71.090 329.858 64.929 L 329.858 58.768 335.545 58.768 L 341.232 58.768 341.232 64.929 M152.607 135.545 L 152.607 141.232 146.919 141.232 L 141.232 141.232 141.232 147.393 L 141.232 153.555 135.545 153.555 L 129.858 153.555 129.858 159.242 L 129.858 164.929 123.697 164.929 L 117.536 164.929 117.536 171.090 L 117.536 177.251 111.848 177.251 L 106.161 177.251 106.161 182.938 L 106.161 188.626 100.000 188.626 L 93.839 188.626 93.839 194.313 L 93.839 200.000 88.152 200.000 L 82.464 200.000 82.464 194.313 L 82.464 188.626 88.152 188.626 L 93.839 188.626 93.839 182.938 L 93.839 177.251 100.000 177.251 L 106.161 177.251 106.161 171.090 L 106.161 164.929 111.848 164.929 L 117.536 164.929 117.536 159.242 L 117.536 153.555 123.697 153.555 L 129.858 153.555 129.858 147.393 L 129.858 141.232 135.545 141.232 L 141.232 141.232 141.232 135.545 L 141.232 129.858 146.919 129.858 L 152.607 129.858 152.607 135.545 M329.858 135.545 L 329.858 141.232 323.697 141.232 L 317.536 141.232 317.536 147.393 L 317.536 153.555 311.848 153.555 L 306.161 153.555 306.161 159.242 L 306.161 164.929 300.000 164.929 L 293.839 164.929 293.839 171.090 L 293.839 177.251 288.152 177.251 L 282.464 177.251 282.464 182.938 L 282.464 188.626 276.303 188.626 L 270.142 188.626 270.142 194.313 L 270.142 200.000 264.455 200.000 L 258.768 200.000 258.768 194.313 L 258.768 188.626 264.455 188.626 L 270.142 188.626 270.142 182.938 L 270.142 177.251 276.303 177.251 L 282.464 177.251 282.464 171.090 L 282.464 164.929 288.152 164.929 L 293.839 164.929 293.839 159.242 L 293.839 153.555 300.000 153.555 L 306.161 153.555 306.161 147.393 L 306.161 141.232 311.848 141.232 L 317.536 141.232 317.536 135.545 L 317.536 129.858 323.697 129.858 L 329.858 129.858 329.858 135.545 M47.393 365.403 L 47.393 459.716 111.848 459.716 L 176.303 459.716 176.303 365.403 L 176.303 271.090 111.848 271.090 L 47.393 271.090 47.393 365.403 M223.697 365.403 L 223.697 459.716 288.152 459.716 L 352.607 459.716 352.607 365.403 L 352.607 271.090 288.152 271.090 L 223.697 271.090 223.697 365.403 M164.929 288.626 L 164.929 294.787 158.768 294.787 L 152.607 294.787 152.607 300.474 L 152.607 306.161 146.919 306.161 L 141.232 306.161 141.232 312.322 L 141.232 318.483 135.545 318.483 L 129.858 318.483 129.858 324.171 L 129.858 329.858 123.697 329.858 L 117.536 329.858 117.536 336.019 L 117.536 342.180 111.848 342.180 L 106.161 342.180 106.161 347.867 L 106.161 353.555 100.000 353.555 L 93.839 353.555 93.839 359.716 L 93.839 365.877 88.152 365.877 L 82.464 365.877 82.464 371.564 L 82.464 377.251 76.303 377.251 L 70.142 377.251 70.142 382.938 L 70.142 388.626 64.455 388.626 L 58.768 388.626 58.768 382.938 L 58.768 377.251 64.410 377.251 L 70.052 377.251 70.334 371.327 L 70.616 365.403 76.540 365.121 L 82.464 364.838 82.464 359.196 L 82.464 353.555 88.152 353.555 L 93.839 353.555 93.839 347.867 L 93.839 342.180 100.000 342.180 L 106.161 342.180 106.161 336.019 L 106.161 329.858 111.848 329.858 L 117.536 329.858 117.536 324.171 L 117.536 318.483 123.697 318.483 L 129.858 318.483 129.858 312.322 L 129.858 306.161 135.545 306.161 L 141.232 306.161 141.232 300.474 L 141.232 294.787 146.919 294.787 L 152.607 294.787 152.607 288.626 L 152.607 282.464 158.768 282.464 L 164.929 282.464 164.929 288.626 M341.232 288.626 L 341.232 294.787 335.545 294.787 L 329.858 294.787 329.858 300.474 L 329.858 306.161 323.697 306.161 L 317.536 306.161 317.536 312.322 L 317.536 318.483 311.848 318.483 L 306.161 318.483 306.161 324.171 L 306.161 329.858 300.000 329.858 L 293.839 329.858 293.839 336.019 L 293.839 342.180 288.152 342.180 L 282.464 342.180 282.464 347.867 L 282.464 353.555 276.303 353.555 L 270.142 353.555 270.142 359.716 L 270.142 365.877 264.455 365.877 L 258.768 365.877 258.768 371.564 L 258.768 377.251 253.081 377.251 L 247.393 377.251 247.393 382.938 L 247.393 388.626 241.232 388.626 L 235.071 388.626 235.071 382.938 L 235.071 377.251 241.232 377.251 L 247.393 377.251 247.393 371.090 L 247.393 364.929 253.081 364.929 L 258.768 364.929 258.768 359.242 L 258.768 353.555 264.455 353.555 L 270.142 353.555 270.142 347.867 L 270.142 342.180 276.303 342.180 L 282.464 342.180 282.464 336.019 L 282.464 329.858 288.152 329.858 L 293.839 329.858 293.839 324.171 L 293.839 318.483 300.000 318.483 L 306.161 318.483 306.161 312.322 L 306.161 306.161 311.848 306.161 L 317.536 306.161 317.536 300.474 L 317.536 294.787 323.697 294.787 L 329.858 294.787 329.858 288.626 L 329.858 282.464 335.545 282.464 L 341.232 282.464 341.232 288.626 M152.607 359.716 L 152.607 365.877 146.919 365.877 L 141.232 365.877 141.232 371.564 L 141.232 377.251 135.545 377.251 L 129.858 377.251 129.858 382.938 L 129.858 388.626 123.697 388.626 L 117.536 388.626 117.536 394.787 L 117.536 400.948 111.848 400.948 L 106.161 400.948 106.161 406.635 L 106.161 412.322 100.000 412.322 L 93.839 412.322 93.839 418.483 L 93.839 424.645 88.152 424.645 L 82.464 424.645 82.464 418.483 L 82.464 412.322 88.152 412.322 L 93.839 412.322 93.839 406.635 L 93.839 400.948 100.000 400.948 L 106.161 400.948 106.161 394.787 L 106.161 388.626 111.848 388.626 L 117.536 388.626 117.536 382.938 L 117.536 377.251 123.697 377.251 L 129.858 377.251 129.858 371.090 L 129.858 364.929 135.545 364.929 L 141.232 364.929 141.232 359.242 L 141.232 353.555 146.919 353.555 L 152.607 353.555 152.607 359.716 M329.666 359.479 L 329.384 365.403 323.460 365.685 L 317.536 365.967 317.536 371.609 L 317.536 377.251 311.848 377.251 L 306.161 377.251 306.161 382.938 L 306.161 388.626 300.000 388.626 L 293.839 388.626 293.839 394.787 L 293.839 400.948 288.152 400.948 L 282.464 400.948 282.464 406.635 L 282.464 412.322 276.303 412.322 L 270.142 412.322 270.142 418.483 L 270.142 424.645 264.455 424.645 L 258.768 424.645 258.768 418.483 L 258.768 412.322 264.455 412.322 L 270.142 412.322 270.142 406.635 L 270.142 400.948 276.303 400.948 L 282.464 400.948 282.464 394.787 L 282.464 388.626 288.152 388.626 L 293.839 388.626 293.839 382.938 L 293.839 377.251 300.000 377.251 L 306.161 377.251 306.161 371.090 L 306.161 364.929 311.848 364.929 L 317.536 364.929 317.536 359.242 L 317.536 353.555 323.742 353.555 L 329.948 353.555 329.666 359.479 M47.393 607.109 L 47.393 707.109 111.848 707.109 L 176.303 707.109 176.303 607.109 L 176.303 507.109 111.848 507.109 L 47.393 507.109 47.393 607.109 M223.697 607.109 L 223.697 707.109 288.152 707.109 L 352.607 707.109 352.607 607.109 L 352.607 507.109 288.152 507.109 L 223.697 507.109 223.697 607.109 M164.929 524.645 L 164.929 530.806 158.768 530.806 L 152.607 530.806 152.607 536.493 L 152.607 542.180 146.919 542.180 L 141.232 542.180 141.232 547.867 L 141.232 553.555 135.545 553.555 L 129.858 553.555 129.858 559.716 L 129.858 565.877 123.697 565.877 L 117.536 565.877 117.536 571.564 L 117.536 577.251 111.848 577.251 L 106.161 577.251 106.161 583.412 L 106.161 589.573 100.000 589.573 L 93.839 589.573 93.839 595.261 L 93.839 600.948 88.152 600.948 L 82.464 600.948 82.464 607.109 L 82.464 613.270 76.303 613.270 L 70.142 613.270 70.142 618.957 L 70.142 624.645 64.455 624.645 L 58.768 624.645 58.768 618.957 L 58.768 613.270 64.455 613.270 L 70.142 613.270 70.142 607.109 L 70.142 600.948 76.303 600.948 L 82.464 600.948 82.464 595.261 L 82.464 589.573 88.152 589.573 L 93.839 589.573 93.839 583.412 L 93.839 577.251 100.000 577.251 L 106.161 577.251 106.161 571.564 L 106.161 565.877 111.848 565.877 L 117.536 565.877 117.536 559.716 L 117.536 553.555 123.697 553.555 L 129.858 553.555 129.858 547.867 L 129.858 542.180 135.545 542.180 L 141.232 542.180 141.232 536.493 L 141.232 530.806 146.919 530.806 L 152.607 530.806 152.607 524.645 L 152.607 518.483 158.768 518.483 L 164.929 518.483 164.929 524.645 M341.232 524.645 L 341.232 530.806 335.545 530.806 L 329.858 530.806 329.858 536.493 L 329.858 542.180 323.697 542.180 L 317.536 542.180 317.536 547.867 L 317.536 553.555 311.848 553.555 L 306.161 553.555 306.161 559.716 L 306.161 565.877 300.000 565.877 L 293.839 565.877 293.839 571.564 L 293.839 577.251 288.152 577.251 L 282.464 577.251 282.464 583.412 L 282.464 589.573 276.303 589.573 L 270.142 589.573 270.142 595.261 L 270.142 600.948 264.455 600.948 L 258.768 600.948 258.768 607.109 L 258.768 613.270 253.081 613.270 L 247.393 613.270 247.393 618.957 L 247.393 624.645 241.232 624.645 L 235.071 624.645 235.071 618.957 L 235.071 613.270 241.232 613.270 L 247.393 613.270 247.393 607.109 L 247.393 600.948 253.081 600.948 L 258.768 600.948 258.768 595.261 L 258.768 589.573 264.455 589.573 L 270.142 589.573 270.142 583.412 L 270.142 577.251 276.303 577.251 L 282.464 577.251 282.464 571.564 L 282.464 565.877 288.152 565.877 L 293.839 565.877 293.839 559.716 L 293.839 553.555 300.000 553.555 L 306.161 553.555 306.161 547.867 L 306.161 542.180 311.848 542.180 L 317.536 542.180 317.536 536.493 L 317.536 530.806 323.697 530.806 L 329.858 530.806 329.858 524.645 L 329.858 518.483 335.545 518.483 L 341.232 518.483 341.232 524.645 M152.607 595.261 L 152.607 600.948 146.919 600.948 L 141.232 600.948 141.232 607.109 L 141.232 613.270 135.545 613.270 L 129.858 613.270 129.858 618.957 L 129.858 624.645 123.697 624.645 L 117.536 624.645 117.536 630.806 L 117.536 636.967 111.848 636.967 L 106.161 636.967 106.161 642.654 L 106.161 648.341 100.000 648.341 L 93.839 648.341 93.839 654.028 L 93.839 659.716 88.152 659.716 L 82.464 659.716 82.464 654.028 L 82.464 648.341 88.152 648.341 L 93.839 648.341 93.839 642.654 L 93.839 636.967 100.000 636.967 L 106.161 636.967 106.161 630.806 L 106.161 624.645 111.848 624.645 L 117.536 624.645 117.536 618.957 L 117.536 613.270 123.697 613.270 L 129.858 613.270 129.858 607.109 L 129.858 600.948 135.545 600.948 L 141.232 600.948 141.232 595.261 L 141.232 589.573 146.919 589.573 L 152.607 589.573 152.607 595.261 M329.858 595.261 L 329.858 600.948 323.697 600.948 L 317.536 600.948 317.536 607.109 L 317.536 613.270 311.848 613.270 L 306.161 613.270 306.161 618.957 L 306.161 624.645 300.000 624.645 L 293.839 624.645 293.839 630.806 L 293.839 636.967 288.152 636.967 L 282.464 636.967 282.464 642.654 L 282.464 648.341 276.303 648.341 L 270.142 648.341 270.142 654.028 L 270.142 659.716 264.455 659.716 L 258.768 659.716 258.768 654.028 L 258.768 648.341 264.455 648.341 L 270.142 648.341 270.142 642.654 L 270.142 636.967 276.303 636.967 L 282.464 636.967 282.464 630.806 L 282.464 624.645 288.152 624.645 L 293.839 624.645 293.839 618.957 L 293.839 613.270 300.000 613.270 L 306.161 613.270 306.161 607.109 L 306.161 600.948 311.848 600.948 L 317.536 600.948 317.536 595.261 L 317.536 589.573 323.697 589.573 L 329.858 589.573 329.858 595.261 M47.393 854.502 L 47.393 954.502 111.848 954.502 L 176.303 954.502 176.303 854.502 L 176.303 754.502 111.848 754.502 L 47.393 754.502 47.393 854.502 M223.697 854.502 L 223.697 954.502 288.152 954.502 L 352.607 954.502 352.607 854.502 L 352.607 754.502 288.152 754.502 L 223.697 754.502 223.697 854.502 M164.929 772.038 L 164.929 778.199 158.768 778.199 L 152.607 778.199 152.607 783.886 L 152.607 789.573 146.919 789.573 L 141.232 789.573 141.232 795.735 L 141.232 801.896 135.545 801.896 L 129.858 801.896 129.858 807.583 L 129.858 813.270 123.697 813.270 L 117.536 813.270 117.536 818.957 L 117.536 824.645 111.848 824.645 L 106.161 824.645 106.161 830.806 L 106.161 836.967 100.000 836.967 L 93.839 836.967 93.839 842.654 L 93.839 848.341 88.152 848.341 L 82.464 848.341 82.464 854.502 L 82.464 860.664 76.303 860.664 L 70.142 860.664 70.142 866.351 L 70.142 872.038 64.455 872.038 L 58.768 872.038 58.768 866.351 L 58.768 860.664 64.455 860.664 L 70.142 860.664 70.142 854.502 L 70.142 848.341 76.303 848.341 L 82.464 848.341 82.464 842.654 L 82.464 836.967 88.152 836.967 L 93.839 836.967 93.839 830.806 L 93.839 824.645 100.000 824.645 L 106.161 824.645 106.161 818.957 L 106.161 813.270 111.848 813.270 L 117.536 813.270 117.536 807.583 L 117.536 801.896 123.697 801.896 L 129.858 801.896 129.858 795.735 L 129.858 789.573 135.545 789.573 L 141.232 789.573 141.232 783.886 L 141.232 778.199 146.919 778.199 L 152.607 778.199 152.607 772.038 L 152.607 765.877 158.768 765.877 L 164.929 765.877 164.929 772.038 M341.232 772.038 L 341.232 778.199 335.545 778.199 L 329.858 778.199 329.858 783.886 L 329.858 789.573 323.697 789.573 L 317.536 789.573 317.536 795.735 L 317.536 801.896 311.848 801.896 L 306.161 801.896 306.161 807.583 L 306.161 813.270 300.000 813.270 L 293.839 813.270 293.839 818.957 L 293.839 824.645 288.152 824.645 L 282.464 824.645 282.464 830.806 L 282.464 836.967 276.303 836.967 L 270.142 836.967 270.142 842.654 L 270.142 848.341 264.455 848.341 L 258.768 848.341 258.768 854.502 L 258.768 860.664 253.081 860.664 L 247.393 860.664 247.393 866.351 L 247.393 872.038 241.232 872.038 L 235.071 872.038 235.071 866.351 L 235.071 860.664 241.232 860.664 L 247.393 860.664 247.393 854.502 L 247.393 848.341 253.081 848.341 L 258.768 848.341 258.768 842.654 L 258.768 836.967 264.410 836.967 L 270.052 836.967 270.334 831.043 L 270.616 825.118 276.540 824.836 L 282.464 824.554 282.464 818.912 L 282.464 813.270 288.152 813.270 L 293.839 813.270 293.839 807.583 L 293.839 801.896 300.000 801.896 L 306.161 801.896 306.161 795.735 L 306.161 789.573 311.848 789.573 L 317.536 789.573 317.536 783.886 L 317.536 778.199 323.697 778.199 L 329.858 778.199 329.858 772.038 L 329.858 765.877 335.545 765.877 L 341.232 765.877 341.232 772.038 M152.607 842.654 L 152.607 848.341 146.919 848.341 L 141.232 848.341 141.232 854.502 L 141.232 860.664 135.545 860.664 L 129.858 860.664 129.858 866.351 L 129.858 872.038 123.697 872.038 L 117.536 872.038 117.536 878.199 L 117.536 884.360 111.848 884.360 L 106.161 884.360 106.161 890.047 L 106.161 895.735 100.000 895.735 L 93.839 895.735 93.839 901.896 L 93.839 908.057 88.152 908.057 L 82.464 908.057 82.464 901.896 L 82.464 895.735 88.152 895.735 L 93.839 895.735 93.839 890.047 L 93.839 884.360 100.000 884.360 L 106.161 884.360 106.161 878.199 L 106.161 872.038 111.848 872.038 L 117.536 872.038 117.536 866.351 L 117.536 860.664 123.697 860.664 L 129.858 860.664 129.858 854.502 L 129.858 848.341 135.545 848.341 L 141.232 848.341 141.232 842.654 L 141.232 836.967 146.919 836.967 L 152.607 836.967 152.607 842.654 M329.858 842.654 L 329.858 848.341 323.697 848.341 L 317.536 848.341 317.536 854.502 L 317.536 860.664 311.848 860.664 L 306.161 860.664 306.161 866.351 L 306.161 872.038 300.000 872.038 L 293.839 872.038 293.839 878.199 L 293.839 884.360 288.152 884.360 L 282.464 884.360 282.464 890.047 L 282.464 895.735 276.303 895.735 L 270.142 895.735 270.142 901.896 L 270.142 908.057 264.455 908.057 L 258.768 908.057 258.768 901.896 L 258.768 895.735 264.455 895.735 L 270.142 895.735 270.142 890.047 L 270.142 884.360 276.303 884.360 L 282.464 884.360 282.464 878.199 L 282.464 872.038 288.152 872.038 L 293.839 872.038 293.839 866.351 L 293.839 860.664 300.000 860.664 L 306.161 860.664 306.161 854.502 L 306.161 848.341 311.848 848.341 L 317.536 848.341 317.536 842.654 L 317.536 836.967 323.697 836.967 L 329.858 836.967 329.858 842.654 M47.393 1101.896 L 47.393 1201.896 111.848 1201.896 L 176.303 1201.896 176.303 1101.896 L 176.303 1001.896 111.848 1001.896 L 47.393 1001.896 47.393 1101.896 M223.697 1101.896 L 223.697 1201.896 288.152 1201.896 L 352.607 1201.896 352.607 1101.896 L 352.607 1001.896 288.152 1001.896 L 223.697 1001.896 223.697 1101.896 M164.929 1019.431 L 164.929 1025.592 158.768 1025.592 L 152.607 1025.592 152.607 1031.280 L 152.607 1036.967 146.919 1036.967 L 141.232 1036.967 141.232 1043.128 L 141.232 1049.289 135.545 1049.289 L 129.858 1049.289 129.858 1054.976 L 129.858 1060.664 123.697 1060.664 L 117.536 1060.664 117.536 1066.825 L 117.536 1072.986 111.848 1072.986 L 106.161 1072.986 106.161 1078.673 L 106.161 1084.360 100.000 1084.360 L 93.839 1084.360 93.839 1090.047 L 93.839 1095.735 88.152 1095.735 L 82.464 1095.735 82.464 1101.896 L 82.464 1108.057 76.303 1108.057 L 70.142 1108.057 70.142 1113.744 L 70.142 1119.431 64.455 1119.431 L 58.768 1119.431 58.768 1113.744 L 58.768 1108.057 64.410 1108.057 L 70.052 1108.057 70.334 1102.133 L 70.616 1096.209 76.540 1095.926 L 82.464 1095.644 82.464 1090.002 L 82.464 1084.360 88.152 1084.360 L 93.839 1084.360 93.839 1078.673 L 93.839 1072.986 100.000 1072.986 L 106.161 1072.986 106.161 1066.825 L 106.161 1060.664 111.848 1060.664 L 117.536 1060.664 117.536 1054.976 L 117.536 1049.289 123.697 1049.289 L 129.858 1049.289 129.858 1043.128 L 129.858 1036.967 135.545 1036.967 L 141.232 1036.967 141.232 1031.280 L 141.232 1025.592 146.919 1025.592 L 152.607 1025.592 152.607 1019.431 L 152.607 1013.270 158.768 1013.270 L 164.929 1013.270 164.929 1019.431 M341.232 1019.431 L 341.232 1025.592 335.545 1025.592 L 329.858 1025.592 329.858 1031.280 L 329.858 1036.967 323.697 1036.967 L 317.536 1036.967 317.536 1043.128 L 317.536 1049.289 311.848 1049.289 L 306.161 1049.289 306.161 1054.976 L 306.161 1060.664 300.000 1060.664 L 293.839 1060.664 293.839 1066.825 L 293.839 1072.986 288.152 1072.986 L 282.464 1072.986 282.464 1078.673 L 282.464 1084.360 276.303 1084.360 L 270.142 1084.360 270.142 1090.047 L 270.142 1095.735 264.455 1095.735 L 258.768 1095.735 258.768 1101.896 L 258.768 1108.057 253.081 1108.057 L 247.393 1108.057 247.393 1113.744 L 247.393 1119.431 241.232 1119.431 L 235.071 1119.431 235.071 1113.744 L 235.071 1108.057 241.232 1108.057 L 247.393 1108.057 247.393 1101.896 L 247.393 1095.735 253.081 1095.735 L 258.768 1095.735 258.768 1090.047 L 258.768 1084.360 264.455 1084.360 L 270.142 1084.360 270.142 1078.673 L 270.142 1072.986 276.303 1072.986 L 282.464 1072.986 282.464 1066.825 L 282.464 1060.664 288.152 1060.664 L 293.839 1060.664 293.839 1054.976 L 293.839 1049.289 300.000 1049.289 L 306.161 1049.289 306.161 1043.128 L 306.161 1036.967 311.848 1036.967 L 317.536 1036.967 317.536 1031.280 L 317.536 1025.592 323.697 1025.592 L 329.858 1025.592 329.858 1019.431 L 329.858 1013.270 335.545 1013.270 L 341.232 1013.270 341.232 1019.431 M152.607 1090.047 L 152.607 1095.735 146.919 1095.735 L 141.232 1095.735 141.232 1101.896 L 141.232 1108.057 135.545 1108.057 L 129.858 1108.057 129.858 1113.744 L 129.858 1119.431 123.697 1119.431 L 117.536 1119.431 117.536 1125.592 L 117.536 1131.754 111.848 1131.754 L 106.161 1131.754 106.161 1137.441 L 106.161 1143.128 100.000 1143.128 L 93.839 1143.128 93.839 1149.289 L 93.839 1155.450 88.152 1155.450 L 82.464 1155.450 82.464 1149.289 L 82.464 1143.128 88.152 1143.128 L 93.839 1143.128 93.839 1137.441 L 93.839 1131.754 100.000 1131.754 L 106.161 1131.754 106.161 1125.592 L 106.161 1119.431 111.848 1119.431 L 117.536 1119.431 117.536 1113.744 L 117.536 1108.057 123.697 1108.057 L 129.858 1108.057 129.858 1101.896 L 129.858 1095.735 135.545 1095.735 L 141.232 1095.735 141.232 1090.047 L 141.232 1084.360 146.919 1084.360 L 152.607 1084.360 152.607 1090.047 M329.858 1090.047 L 329.858 1095.735 323.697 1095.735 L 317.536 1095.735 317.536 1101.896 L 317.536 1108.057 311.848 1108.057 L 306.161 1108.057 306.161 1113.744 L 306.161 1119.431 300.000 1119.431 L 293.839 1119.431 293.839 1125.592 L 293.839 1131.754 288.152 1131.754 L 282.464 1131.754 282.464 1137.441 L 282.464 1143.128 276.303 1143.128 L 270.142 1143.128 270.142 1149.289 L 270.142 1155.450 264.455 1155.450 L 258.768 1155.450 258.768 1149.289 L 258.768 1143.128 264.455 1143.128 L 270.142 1143.128 270.142 1137.441 L 270.142 1131.754 276.303 1131.754 L 282.464 1131.754 282.464 1125.592 L 282.464 1119.431 288.152 1119.431 L 293.839 1119.431 293.839 1113.744 L 293.839 1108.057 300.000 1108.057 L 306.161 1108.057 306.161 1101.896 L 306.161 1095.735 311.848 1095.735 L 317.536 1095.735 317.536 1090.047 L 317.536 1084.360 323.697 1084.360 L 329.858 1084.360 329.858 1090.047 M47.393 1349.763 L 47.393 1450.237 111.848 1450.237 L 176.303 1450.237 176.303 1349.763 L 176.303 1249.289 111.848 1249.289 L 47.393 1249.289 47.393 1349.763 M223.697 1349.763 L 223.697 1450.237 288.152 1450.237 L 352.607 1450.237 352.607 1349.763 L 352.607 1249.289 288.152 1249.289 L 223.697 1249.289 223.697 1349.763 M164.929 1267.299 L 164.929 1272.986 158.768 1272.986 L 152.607 1272.986 152.607 1278.673 L 152.607 1284.360 146.919 1284.360 L 141.232 1284.360 141.232 1290.521 L 141.232 1296.682 135.545 1296.682 L 129.858 1296.682 129.858 1302.370 L 129.858 1308.057 123.697 1308.057 L 117.536 1308.057 117.536 1314.218 L 117.536 1320.379 111.848 1320.379 L 106.161 1320.379 106.161 1326.066 L 106.161 1331.754 100.000 1331.754 L 93.839 1331.754 93.839 1337.915 L 93.839 1344.076 88.152 1344.076 L 82.464 1344.076 82.464 1349.763 L 82.464 1355.450 76.303 1355.450 L 70.142 1355.450 70.142 1361.611 L 70.142 1367.773 64.455 1367.773 L 58.768 1367.773 58.768 1361.611 L 58.768 1355.450 64.455 1355.450 L 70.142 1355.450 70.142 1349.763 L 70.142 1344.076 76.303 1344.076 L 82.464 1344.076 82.464 1337.915 L 82.464 1331.754 88.152 1331.754 L 93.839 1331.754 93.839 1326.066 L 93.839 1320.379 100.000 1320.379 L 106.161 1320.379 106.161 1314.218 L 106.161 1308.057 111.848 1308.057 L 117.536 1308.057 117.536 1302.370 L 117.536 1296.682 123.697 1296.682 L 129.858 1296.682 129.858 1290.521 L 129.858 1284.360 135.545 1284.360 L 141.232 1284.360 141.232 1278.673 L 141.232 1272.986 146.919 1272.986 L 152.607 1272.986 152.607 1267.299 L 152.607 1261.611 158.768 1261.611 L 164.929 1261.611 164.929 1267.299 M341.232 1267.299 L 341.232 1272.986 335.545 1272.986 L 329.858 1272.986 329.858 1278.673 L 329.858 1284.360 323.697 1284.360 L 317.536 1284.360 317.536 1290.521 L 317.536 1296.682 311.848 1296.682 L 306.161 1296.682 306.161 1302.370 L 306.161 1308.057 300.000 1308.057 L 293.839 1308.057 293.839 1314.218 L 293.839 1320.379 288.152 1320.379 L 282.464 1320.379 282.464 1326.066 L 282.464 1331.754 276.303 1331.754 L 270.142 1331.754 270.142 1337.915 L 270.142 1344.076 264.455 1344.076 L 258.768 1344.076 258.768 1349.763 L 258.768 1355.450 253.081 1355.450 L 247.393 1355.450 247.393 1361.611 L 247.393 1367.773 241.232 1367.773 L 235.071 1367.773 235.071 1361.611 L 235.071 1355.450 241.232 1355.450 L 247.393 1355.450 247.393 1349.763 L 247.393 1344.076 253.081 1344.076 L 258.768 1344.076 258.768 1337.915 L 258.768 1331.754 264.455 1331.754 L 270.142 1331.754 270.142 1326.066 L 270.142 1320.379 276.303 1320.379 L 282.464 1320.379 282.464 1314.218 L 282.464 1308.057 288.152 1308.057 L 293.839 1308.057 293.839 1302.370 L 293.839 1296.682 300.000 1296.682 L 306.161 1296.682 306.161 1290.521 L 306.161 1284.360 311.848 1284.360 L 317.536 1284.360 317.536 1278.673 L 317.536 1272.986 323.697 1272.986 L 329.858 1272.986 329.858 1267.299 L 329.858 1261.611 335.545 1261.611 L 341.232 1261.611 341.232 1267.299 M152.607 1337.915 L 152.607 1344.076 146.919 1344.076 L 141.232 1344.076 141.232 1349.763 L 141.232 1355.450 135.590 1355.450 L 129.948 1355.450 129.666 1361.374 L 129.384 1367.299 123.460 1367.581 L 117.536 1367.863 117.536 1373.505 L 117.536 1379.147 111.848 1379.147 L 106.161 1379.147 106.161 1384.834 L 106.161 1390.521 100.000 1390.521 L 93.839 1390.521 93.839 1396.682 L 93.839 1402.844 88.152 1402.844 L 82.464 1402.844 82.464 1396.682 L 82.464 1390.521 88.152 1390.521 L 93.839 1390.521 93.839 1384.834 L 93.839 1379.147 100.000 1379.147 L 106.161 1379.147 106.161 1372.986 L 106.161 1366.825 111.848 1366.825 L 117.536 1366.825 117.536 1361.137 L 117.536 1355.450 123.697 1355.450 L 129.858 1355.450 129.858 1349.763 L 129.858 1344.076 135.545 1344.076 L 141.232 1344.076 141.232 1337.915 L 141.232 1331.754 146.919 1331.754 L 152.607 1331.754 152.607 1337.915 M329.858 1337.915 L 329.858 1344.076 323.697 1344.076 L 317.536 1344.076 317.536 1349.763 L 317.536 1355.450 311.848 1355.450 L 306.161 1355.450 306.161 1361.611 L 306.161 1367.773 300.000 1367.773 L 293.839 1367.773 293.839 1373.460 L 293.839 1379.147 288.152 1379.147 L 282.464 1379.147 282.464 1384.834 L 282.464 1390.521 276.303 1390.521 L 270.142 1390.521 270.142 1396.682 L 270.142 1402.844 264.455 1402.844 L 258.768 1402.844 258.768 1396.682 L 258.768 1390.521 264.455 1390.521 L 270.142 1390.521 270.142 1384.834 L 270.142 1379.147 276.303 1379.147 L 282.464 1379.147 282.464 1372.986 L 282.464 1366.825 288.152 1366.825 L 293.839 1366.825 293.839 1361.137 L 293.839 1355.450 300.000 1355.450 L 306.161 1355.450 306.161 1349.763 L 306.161 1344.076 311.848 1344.076 L 317.536 1344.076 317.536 1337.915 L 317.536 1331.754 323.697 1331.754 L 329.858 1331.754 329.858 1337.915 M47.393 1597.156 L 47.393 1697.630 111.848 1697.630 L 176.303 1697.630 176.303 1597.156 L 176.303 1496.682 111.848 1496.682 L 47.393 1496.682 47.393 1597.156 M223.697 1597.156 L 223.697 1697.630 288.152 1697.630 L 352.607 1697.630 352.607 1597.156 L 352.607 1496.682 288.152 1496.682 L 223.697 1496.682 223.697 1597.156 M164.929 1514.692 L 164.929 1520.379 158.768 1520.379 L 152.607 1520.379 152.607 1526.540 L 152.607 1532.701 146.919 1532.701 L 141.232 1532.701 141.232 1538.389 L 141.232 1544.076 135.545 1544.076 L 129.858 1544.076 129.858 1549.763 L 129.858 1555.450 123.697 1555.450 L 117.536 1555.450 117.536 1561.611 L 117.536 1567.773 111.848 1567.773 L 106.161 1567.773 106.161 1573.460 L 106.161 1579.147 100.000 1579.147 L 93.839 1579.147 93.839 1585.308 L 93.839 1591.469 88.152 1591.469 L 82.464 1591.469 82.464 1597.156 L 82.464 1602.844 76.303 1602.844 L 70.142 1602.844 70.142 1609.005 L 70.142 1615.166 64.455 1615.166 L 58.768 1615.166 58.768 1609.005 L 58.768 1602.844 64.455 1602.844 L 70.142 1602.844 70.142 1597.156 L 70.142 1591.469 76.303 1591.469 L 82.464 1591.469 82.464 1585.308 L 82.464 1579.147 88.152 1579.147 L 93.839 1579.147 93.839 1573.460 L 93.839 1567.773 100.000 1567.773 L 106.161 1567.773 106.161 1561.611 L 106.161 1555.450 111.848 1555.450 L 117.536 1555.450 117.536 1549.763 L 117.536 1544.076 123.697 1544.076 L 129.858 1544.076 129.858 1538.389 L 129.858 1532.701 135.545 1532.701 L 141.232 1532.701 141.232 1526.540 L 141.232 1520.379 146.919 1520.379 L 152.607 1520.379 152.607 1514.692 L 152.607 1509.005 158.768 1509.005 L 164.929 1509.005 164.929 1514.692 M341.232 1514.692 L 341.232 1520.379 335.545 1520.379 L 329.858 1520.379 329.858 1526.540 L 329.858 1532.701 323.697 1532.701 L 317.536 1532.701 317.536 1538.389 L 317.536 1544.076 311.848 1544.076 L 306.161 1544.076 306.161 1549.763 L 306.161 1555.450 300.000 1555.450 L 293.839 1555.450 293.839 1561.611 L 293.839 1567.773 288.152 1567.773 L 282.464 1567.773 282.464 1573.460 L 282.464 1579.147 276.303 1579.147 L 270.142 1579.147 270.142 1585.308 L 270.142 1591.469 264.455 1591.469 L 258.768 1591.469 258.768 1597.156 L 258.768 1602.844 253.081 1602.844 L 247.393 1602.844 247.393 1609.005 L 247.393 1615.166 241.232 1615.166 L 235.071 1615.166 235.071 1609.005 L 235.071 1602.844 241.232 1602.844 L 247.393 1602.844 247.393 1597.156 L 247.393 1591.469 253.081 1591.469 L 258.768 1591.469 258.768 1585.308 L 258.768 1579.147 264.455 1579.147 L 270.142 1579.147 270.142 1573.460 L 270.142 1567.773 276.303 1567.773 L 282.464 1567.773 282.464 1561.611 L 282.464 1555.450 288.152 1555.450 L 293.839 1555.450 293.839 1549.763 L 293.839 1544.076 300.000 1544.076 L 306.161 1544.076 306.161 1538.389 L 306.161 1532.701 311.848 1532.701 L 317.536 1532.701 317.536 1526.540 L 317.536 1520.379 323.697 1520.379 L 329.858 1520.379 329.858 1514.692 L 329.858 1509.005 335.545 1509.005 L 341.232 1509.005 341.232 1514.692 M152.607 1585.308 L 152.607 1591.469 146.919 1591.469 L 141.232 1591.469 141.232 1597.156 L 141.232 1602.844 135.545 1602.844 L 129.858 1602.844 129.858 1609.005 L 129.858 1615.166 123.697 1615.166 L 117.536 1615.166 117.536 1620.853 L 117.536 1626.540 111.848 1626.540 L 106.161 1626.540 106.161 1632.701 L 106.161 1638.863 100.000 1638.863 L 93.839 1638.863 93.839 1644.550 L 93.839 1650.237 88.152 1650.237 L 82.464 1650.237 82.464 1644.076 L 82.464 1637.915 88.152 1637.915 L 93.839 1637.915 93.839 1632.227 L 93.839 1626.540 100.000 1626.540 L 106.161 1626.540 106.161 1620.853 L 106.161 1615.166 111.848 1615.166 L 117.536 1615.166 117.536 1609.005 L 117.536 1602.844 123.697 1602.844 L 129.858 1602.844 129.858 1597.156 L 129.858 1591.469 135.545 1591.469 L 141.232 1591.469 141.232 1585.308 L 141.232 1579.147 146.919 1579.147 L 152.607 1579.147 152.607 1585.308 M329.858 1585.308 L 329.858 1591.469 323.697 1591.469 L 317.536 1591.469 317.536 1597.156 L 317.536 1602.844 311.848 1602.844 L 306.161 1602.844 306.161 1609.005 L 306.161 1615.166 300.000 1615.166 L 293.839 1615.166 293.839 1620.853 L 293.839 1626.540 288.152 1626.540 L 282.464 1626.540 282.464 1632.701 L 282.464 1638.863 276.303 1638.863 L 270.142 1638.863 270.142 1644.550 L 270.142 1650.237 264.455 1650.237 L 258.768 1650.237 258.768 1644.076 L 258.768 1637.915 264.455 1637.915 L 270.142 1637.915 270.142 1632.227 L 270.142 1626.540 276.303 1626.540 L 282.464 1626.540 282.464 1620.853 L 282.464 1615.166 288.152 1615.166 L 293.839 1615.166 293.839 1609.005 L 293.839 1602.844 300.000 1602.844 L 306.161 1602.844 306.161 1597.156 L 306.161 1591.469 311.848 1591.469 L 317.536 1591.469 317.536 1585.308 L 317.536 1579.147 323.697 1579.147 L 329.858 1579.147 329.858 1585.308 M47.393 1838.389 L 47.393 1932.701 111.848 1932.701 L 176.303 1932.701 176.303 1838.389 L 176.303 1744.076 111.848 1744.076 L 47.393 1744.076 47.393 1838.389 M223.697 1838.389 L 223.697 1932.701 288.152 1932.701 L 352.607 1932.701 352.607 1838.389 L 352.607 1744.076 288.152 1744.076 L 223.697 1744.076 223.697 1838.389 M164.929 1762.085 L 164.929 1767.773 158.768 1767.773 L 152.607 1767.773 152.607 1773.934 L 152.607 1780.095 146.919 1780.095 L 141.232 1780.095 141.232 1785.782 L 141.232 1791.469 135.545 1791.469 L 129.858 1791.469 129.858 1797.630 L 129.858 1803.791 123.697 1803.791 L 117.536 1803.791 117.536 1809.479 L 117.536 1815.166 111.848 1815.166 L 106.161 1815.166 106.161 1820.853 L 106.161 1826.540 100.000 1826.540 L 93.839 1826.540 93.839 1832.701 L 93.839 1838.863 88.152 1838.863 L 82.464 1838.863 82.464 1844.550 L 82.464 1850.237 76.303 1850.237 L 70.142 1850.237 70.142 1856.398 L 70.142 1862.559 64.455 1862.559 L 58.768 1862.559 58.768 1856.398 L 58.768 1850.237 64.455 1850.237 L 70.142 1850.237 70.142 1844.550 L 70.142 1838.863 76.303 1838.863 L 82.464 1838.863 82.464 1832.701 L 82.464 1826.540 88.152 1826.540 L 93.839 1826.540 93.839 1820.853 L 93.839 1815.166 100.000 1815.166 L 106.161 1815.166 106.161 1809.479 L 106.161 1803.791 111.848 1803.791 L 117.536 1803.791 117.536 1797.630 L 117.536 1791.469 123.697 1791.469 L 129.858 1791.469 129.858 1785.782 L 129.858 1780.095 135.545 1780.095 L 141.232 1780.095 141.232 1773.934 L 141.232 1767.773 146.919 1767.773 L 152.607 1767.773 152.607 1762.085 L 152.607 1756.398 158.768 1756.398 L 164.929 1756.398 164.929 1762.085 M341.232 1762.085 L 341.232 1767.773 335.545 1767.773 L 329.858 1767.773 329.858 1773.934 L 329.858 1780.095 323.697 1780.095 L 317.536 1780.095 317.536 1785.782 L 317.536 1791.469 311.848 1791.469 L 306.161 1791.469 306.161 1797.630 L 306.161 1803.791 300.000 1803.791 L 293.839 1803.791 293.839 1809.479 L 293.839 1815.166 288.152 1815.166 L 282.464 1815.166 282.464 1820.853 L 282.464 1826.540 276.303 1826.540 L 270.142 1826.540 270.142 1832.701 L 270.142 1838.863 264.455 1838.863 L 258.768 1838.863 258.768 1844.550 L 258.768 1850.237 253.081 1850.237 L 247.393 1850.237 247.393 1856.398 L 247.393 1862.559 241.232 1862.559 L 235.071 1862.559 235.071 1856.398 L 235.071 1850.237 241.232 1850.237 L 247.393 1850.237 247.393 1844.550 L 247.393 1838.863 253.081 1838.863 L 258.768 1838.863 258.768 1832.701 L 258.768 1826.540 264.455 1826.540 L 270.142 1826.540 270.142 1820.853 L 270.142 1815.166 276.303 1815.166 L 282.464 1815.166 282.464 1809.479 L 282.464 1803.791 288.152 1803.791 L 293.839 1803.791 293.839 1797.630 L 293.839 1791.469 300.000 1791.469 L 306.161 1791.469 306.161 1785.782 L 306.161 1780.095 311.848 1780.095 L 317.536 1780.095 317.536 1773.934 L 317.536 1767.773 323.697 1767.773 L 329.858 1767.773 329.858 1762.085 L 329.858 1756.398 335.545 1756.398 L 341.232 1756.398 341.232 1762.085 M152.607 1832.701 L 152.607 1838.863 146.919 1838.863 L 141.232 1838.863 141.232 1844.550 L 141.232 1850.237 135.545 1850.237 L 129.858 1850.237 129.858 1856.398 L 129.858 1862.559 123.697 1862.559 L 117.536 1862.559 117.536 1868.246 L 117.536 1873.934 111.848 1873.934 L 106.161 1873.934 106.161 1880.095 L 106.161 1886.256 100.000 1886.256 L 93.839 1886.256 93.839 1891.943 L 93.839 1897.630 88.152 1897.630 L 82.464 1897.630 82.464 1891.943 L 82.464 1886.256 88.152 1886.256 L 93.839 1886.256 93.839 1880.095 L 93.839 1873.934 100.000 1873.934 L 106.161 1873.934 106.161 1868.246 L 106.161 1862.559 111.848 1862.559 L 117.536 1862.559 117.536 1856.398 L 117.536 1850.237 123.697 1850.237 L 129.858 1850.237 129.858 1844.550 L 129.858 1838.863 135.545 1838.863 L 141.232 1838.863 141.232 1832.701 L 141.232 1826.540 146.919 1826.540 L 152.607 1826.540 152.607 1832.701 M329.666 1832.938 L 329.948 1838.863 323.742 1838.863 L 317.536 1838.863 317.536 1844.550 L 317.536 1850.237 311.848 1850.237 L 306.161 1850.237 306.161 1856.398 L 306.161 1862.559 300.000 1862.559 L 293.839 1862.559 293.839 1868.246 L 293.839 1873.934 288.152 1873.934 L 282.464 1873.934 282.464 1880.095 L 282.464 1886.256 276.303 1886.256 L 270.142 1886.256 270.142 1891.943 L 270.142 1897.630 264.455 1897.630 L 258.768 1897.630 258.768 1891.943 L 258.768 1886.256 264.455 1886.256 L 270.142 1886.256 270.142 1880.095 L 270.142 1873.934 276.303 1873.934 L 282.464 1873.934 282.464 1868.246 L 282.464 1862.559 288.152 1862.559 L 293.839 1862.559 293.839 1856.398 L 293.839 1850.237 300.000 1850.237 L 306.161 1850.237 306.161 1844.550 L 306.161 1838.863 311.848 1838.863 L 317.536 1838.863 317.536 1832.656 L 317.536 1826.450 323.460 1826.732 L 329.384 1827.014 329.666 1832.938 M47.393 2068.720 L 47.393 2157.346 111.848 2157.346 L 176.303 2157.346 176.303 2068.720 L 176.303 1980.095 111.848 1980.095 L 47.393 1980.095 47.393 2068.720 M223.697 2068.720 L 223.697 2157.346 288.152 2157.346 L 352.607 2157.346 352.607 2068.720 L 352.607 1980.095 288.152 1980.095 L 223.697 1980.095 223.697 2068.720 M164.929 1998.104 L 164.929 2003.791 158.768 2003.791 L 152.607 2003.791 152.607 2009.479 L 152.607 2015.166 146.919 2015.166 L 141.232 2015.166 141.232 2021.327 L 141.232 2027.488 135.545 2027.488 L 129.858 2027.488 129.858 2033.175 L 129.858 2038.863 123.697 2038.863 L 117.536 2038.863 117.536 2045.024 L 117.536 2051.185 111.848 2051.185 L 106.161 2051.185 106.161 2056.872 L 106.161 2062.559 100.000 2062.559 L 93.839 2062.559 93.839 2068.720 L 93.839 2074.882 88.152 2074.882 L 82.464 2074.882 82.464 2080.569 L 82.464 2086.256 76.303 2086.256 L 70.142 2086.256 70.142 2091.943 L 70.142 2097.630 64.455 2097.630 L 58.768 2097.630 58.768 2091.943 L 58.768 2086.256 64.455 2086.256 L 70.142 2086.256 70.142 2080.569 L 70.142 2074.882 76.303 2074.882 L 82.464 2074.882 82.464 2068.720 L 82.464 2062.559 88.152 2062.559 L 93.839 2062.559 93.839 2056.872 L 93.839 2051.185 100.000 2051.185 L 106.161 2051.185 106.161 2045.024 L 106.161 2038.863 111.848 2038.863 L 117.536 2038.863 117.536 2033.175 L 117.536 2027.488 123.697 2027.488 L 129.858 2027.488 129.858 2021.327 L 129.858 2015.166 135.545 2015.166 L 141.232 2015.166 141.232 2009.479 L 141.232 2003.791 146.919 2003.791 L 152.607 2003.791 152.607 1998.104 L 152.607 1992.417 158.768 1992.417 L 164.929 1992.417 164.929 1998.104 M341.232 1998.104 L 341.232 2003.791 335.545 2003.791 L 329.858 2003.791 329.858 2009.479 L 329.858 2015.166 323.697 2015.166 L 317.536 2015.166 317.536 2021.327 L 317.536 2027.488 311.848 2027.488 L 306.161 2027.488 306.161 2033.175 L 306.161 2038.863 300.000 2038.863 L 293.839 2038.863 293.839 2045.024 L 293.839 2051.185 288.152 2051.185 L 282.464 2051.185 282.464 2056.872 L 282.464 2062.559 276.303 2062.559 L 270.142 2062.559 270.142 2068.720 L 270.142 2074.882 264.455 2074.882 L 258.768 2074.882 258.768 2080.569 L 258.768 2086.256 253.081 2086.256 L 247.393 2086.256 247.393 2091.943 L 247.393 2097.630 241.232 2097.630 L 235.071 2097.630 235.071 2091.943 L 235.071 2086.256 241.232 2086.256 L 247.393 2086.256 247.393 2080.569 L 247.393 2074.882 253.081 2074.882 L 258.768 2074.882 258.768 2068.720 L 258.768 2062.559 264.455 2062.559 L 270.142 2062.559 270.142 2056.872 L 270.142 2051.185 276.303 2051.185 L 282.464 2051.185 282.464 2045.024 L 282.464 2038.863 288.152 2038.863 L 293.839 2038.863 293.839 2033.175 L 293.839 2027.488 300.000 2027.488 L 306.161 2027.488 306.161 2021.327 L 306.161 2015.166 311.848 2015.166 L 317.536 2015.166 317.536 2009.479 L 317.536 2003.791 323.697 2003.791 L 329.858 2003.791 329.858 1998.104 L 329.858 1992.417 335.545 1992.417 L 341.232 1992.417 341.232 1998.104 M152.607 2068.720 L 152.607 2074.882 146.919 2074.882 L 141.232 2074.882 141.232 2080.569 L 141.232 2086.256 135.545 2086.256 L 129.858 2086.256 129.858 2091.943 L 129.858 2097.630 123.697 2097.630 L 117.536 2097.630 117.536 2103.791 L 117.536 2109.953 111.848 2109.953 L 106.161 2109.953 106.161 2115.640 L 106.161 2121.327 100.000 2121.327 L 93.839 2121.327 93.839 2127.488 L 93.839 2133.649 88.152 2133.649 L 82.464 2133.649 82.464 2127.488 L 82.464 2121.327 88.152 2121.327 L 93.839 2121.327 93.839 2115.640 L 93.839 2109.953 100.000 2109.953 L 106.161 2109.953 106.161 2103.791 L 106.161 2097.630 111.848 2097.630 L 117.536 2097.630 117.536 2091.943 L 117.536 2086.256 123.697 2086.256 L 129.858 2086.256 129.858 2080.569 L 129.858 2074.882 135.545 2074.882 L 141.232 2074.882 141.232 2068.720 L 141.232 2062.559 146.919 2062.559 L 152.607 2062.559 152.607 2068.720 M329.858 2068.720 L 329.858 2074.882 323.697 2074.882 L 317.536 2074.882 317.536 2080.569 L 317.536 2086.256 311.848 2086.256 L 306.161 2086.256 306.161 2091.943 L 306.161 2097.630 300.000 2097.630 L 293.839 2097.630 293.839 2103.791 L 293.839 2109.953 288.152 2109.953 L 282.464 2109.953 282.464 2115.640 L 282.464 2121.327 276.303 2121.327 L 270.142 2121.327 270.142 2127.488 L 270.142 2133.649 264.455 2133.649 L 258.768 2133.649 258.768 2127.488 L 258.768 2121.327 264.455 2121.327 L 270.142 2121.327 270.142 2115.640 L 270.142 2109.953 276.303 2109.953 L 282.464 2109.953 282.464 2103.791 L 282.464 2097.630 288.152 2097.630 L 293.839 2097.630 293.839 2091.943 L 293.839 2086.256 300.000 2086.256 L 306.161 2086.256 306.161 2080.569 L 306.161 2074.882 311.848 2074.882 L 317.536 2074.882 317.536 2068.720 L 317.536 2062.559 323.697 2062.559 L 329.858 2062.559 329.858 2068.720 M47.393 2239.336 L 47.393 2274.882 76.777 2274.882 L 106.161 2274.882 106.161 2269.194 L 106.161 2263.507 111.848 2263.507 L 117.536 2263.507 117.536 2269.194 L 117.536 2274.882 146.919 2274.882 L 176.303 2274.882 176.303 2239.336 L 176.303 2203.791 111.848 2203.791 L 47.393 2203.791 47.393 2239.336 M223.697 2239.336 L 223.697 2274.882 253.081 2274.882 L 282.464 2274.882 282.464 2269.194 L 282.464 2263.507 288.152 2263.507 L 293.839 2263.507 293.839 2269.194 L 293.839 2274.882 323.223 2274.882 L 352.607 2274.882 352.607 2239.336 L 352.607 2203.791 288.152 2203.791 L 223.697 2203.791 223.697 2239.336 M164.929 2221.801 L 164.929 2227.488 158.768 2227.488 L 152.607 2227.488 152.607 2233.649 L 152.607 2239.810 146.919 2239.810 L 141.232 2239.810 141.232 2245.498 L 141.232 2251.185 135.590 2251.185 L 129.948 2251.185 129.666 2257.109 L 129.384 2263.033 123.460 2263.315 L 117.536 2263.598 117.536 2257.391 L 117.536 2251.185 123.697 2251.185 L 129.858 2251.185 129.858 2245.498 L 129.858 2239.810 135.545 2239.810 L 141.232 2239.810 141.232 2233.649 L 141.232 2227.488 146.919 2227.488 L 152.607 2227.488 152.607 2221.801 L 152.607 2216.114 158.768 2216.114 L 164.929 2216.114 164.929 2221.801 M341.232 2221.801 L 341.232 2227.488 335.545 2227.488 L 329.858 2227.488 329.858 2233.649 L 329.858 2239.810 323.697 2239.810 L 317.536 2239.810 317.536 2245.498 L 317.536 2251.185 311.848 2251.185 L 306.161 2251.185 306.161 2257.346 L 306.161 2263.507 300.000 2263.507 L 293.839 2263.507 293.839 2257.346 L 293.839 2251.185 300.000 2251.185 L 306.161 2251.185 306.161 2245.498 L 306.161 2239.810 311.848 2239.810 L 317.536 2239.810 317.536 2233.649 L 317.536 2227.488 323.697 2227.488 L 329.858 2227.488 329.858 2221.801 L 329.858 2216.114 335.545 2216.114 L 341.232 2216.114 341.232 2221.801 " stroke="none" fill="#8cdcfc" fill-rule="evenodd"/><path id="path1" d="M152.607 64.929 L 152.607 71.090 146.919 71.090 L 141.232 71.090 141.232 76.777 L 141.232 82.464 135.545 82.464 L 129.858 82.464 129.858 88.152 L 129.858 93.839 123.697 93.839 L 117.536 93.839 117.536 100.000 L 117.536 106.161 111.848 106.161 L 106.161 106.161 106.161 111.848 L 106.161 117.536 100.000 117.536 L 93.839 117.536 93.839 123.697 L 93.839 129.858 88.152 129.858 L 82.464 129.858 82.464 135.545 L 82.464 141.232 76.303 141.232 L 70.142 141.232 70.142 147.393 L 70.142 153.555 64.455 153.555 L 58.768 153.555 58.768 159.242 L 58.768 164.929 64.455 164.929 L 70.142 164.929 70.142 159.242 L 70.142 153.555 76.303 153.555 L 82.464 153.555 82.464 147.393 L 82.464 141.232 88.152 141.232 L 93.839 141.232 93.839 135.545 L 93.839 129.858 100.000 129.858 L 106.161 129.858 106.161 123.697 L 106.161 117.536 111.848 117.536 L 117.536 117.536 117.536 111.848 L 117.536 106.161 123.697 106.161 L 129.858 106.161 129.858 100.000 L 129.858 93.839 135.545 93.839 L 141.232 93.839 141.232 88.152 L 141.232 82.464 146.919 82.464 L 152.607 82.464 152.607 76.777 L 152.607 71.090 158.768 71.090 L 164.929 71.090 164.929 64.929 L 164.929 58.768 158.768 58.768 L 152.607 58.768 152.607 64.929 M329.858 64.929 L 329.858 71.090 323.697 71.090 L 317.536 71.090 317.536 76.777 L 317.536 82.464 311.848 82.464 L 306.161 82.464 306.161 88.152 L 306.161 93.839 300.000 93.839 L 293.839 93.839 293.839 100.000 L 293.839 106.161 288.152 106.161 L 282.464 106.161 282.464 111.848 L 282.464 117.536 276.303 117.536 L 270.142 117.536 270.142 123.697 L 270.142 129.858 264.455 129.858 L 258.768 129.858 258.768 135.545 L 258.768 141.232 253.081 141.232 L 247.393 141.232 247.393 147.393 L 247.393 153.555 241.232 153.555 L 235.071 153.555 235.071 159.242 L 235.071 164.929 241.232 164.929 L 247.393 164.929 247.393 159.242 L 247.393 153.555 253.081 153.555 L 258.768 153.555 258.768 147.393 L 258.768 141.232 264.455 141.232 L 270.142 141.232 270.142 135.545 L 270.142 129.858 276.303 129.858 L 282.464 129.858 282.464 123.697 L 282.464 117.536 288.152 117.536 L 293.839 117.536 293.839 111.848 L 293.839 106.161 300.000 106.161 L 306.161 106.161 306.161 100.000 L 306.161 93.839 311.848 93.839 L 317.536 93.839 317.536 88.152 L 317.536 82.464 323.697 82.464 L 329.858 82.464 329.858 76.777 L 329.858 71.090 335.545 71.090 L 341.232 71.090 341.232 64.929 L 341.232 58.768 335.545 58.768 L 329.858 58.768 329.858 64.929 M141.232 135.545 L 141.232 141.232 135.545 141.232 L 129.858 141.232 129.858 147.393 L 129.858 153.555 123.697 153.555 L 117.536 153.555 117.536 159.242 L 117.536 164.929 111.848 164.929 L 106.161 164.929 106.161 171.090 L 106.161 177.251 100.000 177.251 L 93.839 177.251 93.839 182.938 L 93.839 188.626 88.152 188.626 L 82.464 188.626 82.464 194.313 L 82.464 200.000 88.152 200.000 L 93.839 200.000 93.839 194.313 L 93.839 188.626 100.000 188.626 L 106.161 188.626 106.161 182.938 L 106.161 177.251 111.848 177.251 L 117.536 177.251 117.536 171.090 L 117.536 164.929 123.697 164.929 L 129.858 164.929 129.858 159.242 L 129.858 153.555 135.545 153.555 L 141.232 153.555 141.232 147.393 L 141.232 141.232 146.919 141.232 L 152.607 141.232 152.607 135.545 L 152.607 129.858 146.919 129.858 L 141.232 129.858 141.232 135.545 M317.536 135.545 L 317.536 141.232 311.848 141.232 L 306.161 141.232 306.161 147.393 L 306.161 153.555 300.000 153.555 L 293.839 153.555 293.839 159.242 L 293.839 164.929 288.152 164.929 L 282.464 164.929 282.464 171.090 L 282.464 177.251 276.303 177.251 L 270.142 177.251 270.142 182.938 L 270.142 188.626 264.455 188.626 L 258.768 188.626 258.768 194.313 L 258.768 200.000 264.455 200.000 L 270.142 200.000 270.142 194.313 L 270.142 188.626 276.303 188.626 L 282.464 188.626 282.464 182.938 L 282.464 177.251 288.152 177.251 L 293.839 177.251 293.839 171.090 L 293.839 164.929 300.000 164.929 L 306.161 164.929 306.161 159.242 L 306.161 153.555 311.848 153.555 L 317.536 153.555 317.536 147.393 L 317.536 141.232 323.697 141.232 L 329.858 141.232 329.858 135.545 L 329.858 129.858 323.697 129.858 L 317.536 129.858 317.536 135.545 M152.607 288.626 L 152.607 294.787 146.919 294.787 L 141.232 294.787 141.232 300.474 L 141.232 306.161 135.545 306.161 L 129.858 306.161 129.858 312.322 L 129.858 318.483 123.697 318.483 L 117.536 318.483 117.536 324.171 L 117.536 329.858 111.848 329.858 L 106.161 329.858 106.161 336.019 L 106.161 342.180 100.000 342.180 L 93.839 342.180 93.839 347.867 L 93.839 353.555 88.152 353.555 L 82.464 353.555 82.464 359.196 L 82.464 364.838 76.540 365.121 L 70.616 365.403 70.334 371.327 L 70.052 377.251 64.410 377.251 L 58.768 377.251 58.768 382.938 L 58.768 388.626 64.455 388.626 L 70.142 388.626 70.142 382.938 L 70.142 377.251 76.303 377.251 L 82.464 377.251 82.464 371.564 L 82.464 365.877 88.152 365.877 L 93.839 365.877 93.839 359.716 L 93.839 353.555 100.000 353.555 L 106.161 353.555 106.161 347.867 L 106.161 342.180 111.848 342.180 L 117.536 342.180 117.536 336.019 L 117.536 329.858 123.697 329.858 L 129.858 329.858 129.858 324.171 L 129.858 318.483 135.545 318.483 L 141.232 318.483 141.232 312.322 L 141.232 306.161 146.919 306.161 L 152.607 306.161 152.607 300.474 L 152.607 294.787 158.768 294.787 L 164.929 294.787 164.929 288.626 L 164.929 282.464 158.768 282.464 L 152.607 282.464 152.607 288.626 M329.858 288.626 L 329.858 294.787 323.697 294.787 L 317.536 294.787 317.536 300.474 L 317.536 306.161 311.848 306.161 L 306.161 306.161 306.161 312.322 L 306.161 318.483 300.000 318.483 L 293.839 318.483 293.839 324.171 L 293.839 329.858 288.152 329.858 L 282.464 329.858 282.464 336.019 L 282.464 342.180 276.303 342.180 L 270.142 342.180 270.142 347.867 L 270.142 353.555 264.455 353.555 L 258.768 353.555 258.768 359.242 L 258.768 364.929 253.081 364.929 L 247.393 364.929 247.393 371.090 L 247.393 377.251 241.232 377.251 L 235.071 377.251 235.071 382.938 L 235.071 388.626 241.232 388.626 L 247.393 388.626 247.393 382.938 L 247.393 377.251 253.081 377.251 L 258.768 377.251 258.768 371.564 L 258.768 365.877 264.455 365.877 L 270.142 365.877 270.142 359.716 L 270.142 353.555 276.303 353.555 L 282.464 353.555 282.464 347.867 L 282.464 342.180 288.152 342.180 L 293.839 342.180 293.839 336.019 L 293.839 329.858 300.000 329.858 L 306.161 329.858 306.161 324.171 L 306.161 318.483 311.848 318.483 L 317.536 318.483 317.536 312.322 L 317.536 306.161 323.697 306.161 L 329.858 306.161 329.858 300.474 L 329.858 294.787 335.545 294.787 L 341.232 294.787 341.232 288.626 L 341.232 282.464 335.545 282.464 L 329.858 282.464 329.858 288.626 M141.232 359.242 L 141.232 364.929 135.545 364.929 L 129.858 364.929 129.858 371.090 L 129.858 377.251 123.697 377.251 L 117.536 377.251 117.536 382.938 L 117.536 388.626 111.848 388.626 L 106.161 388.626 106.161 394.787 L 106.161 400.948 100.000 400.948 L 93.839 400.948 93.839 406.635 L 93.839 412.322 88.152 412.322 L 82.464 412.322 82.464 418.483 L 82.464 424.645 88.152 424.645 L 93.839 424.645 93.839 418.483 L 93.839 412.322 100.000 412.322 L 106.161 412.322 106.161 406.635 L 106.161 400.948 111.848 400.948 L 117.536 400.948 117.536 394.787 L 117.536 388.626 123.697 388.626 L 129.858 388.626 129.858 382.938 L 129.858 377.251 135.545 377.251 L 141.232 377.251 141.232 371.564 L 141.232 365.877 146.919 365.877 L 152.607 365.877 152.607 359.716 L 152.607 353.555 146.919 353.555 L 141.232 353.555 141.232 359.242 M317.536 359.242 L 317.536 364.929 311.848 364.929 L 306.161 364.929 306.161 371.090 L 306.161 377.251 300.000 377.251 L 293.839 377.251 293.839 382.938 L 293.839 388.626 288.152 388.626 L 282.464 388.626 282.464 394.787 L 282.464 400.948 276.303 400.948 L 270.142 400.948 270.142 406.635 L 270.142 412.322 264.455 412.322 L 258.768 412.322 258.768 418.483 L 258.768 424.645 264.455 424.645 L 270.142 424.645 270.142 418.483 L 270.142 412.322 276.303 412.322 L 282.464 412.322 282.464 406.635 L 282.464 400.948 288.152 400.948 L 293.839 400.948 293.839 394.787 L 293.839 388.626 300.000 388.626 L 306.161 388.626 306.161 382.938 L 306.161 377.251 311.848 377.251 L 317.536 377.251 317.536 371.609 L 317.536 365.967 323.460 365.685 L 329.384 365.403 329.666 359.479 L 329.948 353.555 323.742 353.555 L 317.536 353.555 317.536 359.242 M152.607 524.645 L 152.607 530.806 146.919 530.806 L 141.232 530.806 141.232 536.493 L 141.232 542.180 135.545 542.180 L 129.858 542.180 129.858 547.867 L 129.858 553.555 123.697 553.555 L 117.536 553.555 117.536 559.716 L 117.536 565.877 111.848 565.877 L 106.161 565.877 106.161 571.564 L 106.161 577.251 100.000 577.251 L 93.839 577.251 93.839 583.412 L 93.839 589.573 88.152 589.573 L 82.464 589.573 82.464 595.261 L 82.464 600.948 76.303 600.948 L 70.142 600.948 70.142 607.109 L 70.142 613.270 64.455 613.270 L 58.768 613.270 58.768 618.957 L 58.768 624.645 64.455 624.645 L 70.142 624.645 70.142 618.957 L 70.142 613.270 76.303 613.270 L 82.464 613.270 82.464 607.109 L 82.464 600.948 88.152 600.948 L 93.839 600.948 93.839 595.261 L 93.839 589.573 100.000 589.573 L 106.161 589.573 106.161 583.412 L 106.161 577.251 111.848 577.251 L 117.536 577.251 117.536 571.564 L 117.536 565.877 123.697 565.877 L 129.858 565.877 129.858 559.716 L 129.858 553.555 135.545 553.555 L 141.232 553.555 141.232 547.867 L 141.232 542.180 146.919 542.180 L 152.607 542.180 152.607 536.493 L 152.607 530.806 158.768 530.806 L 164.929 530.806 164.929 524.645 L 164.929 518.483 158.768 518.483 L 152.607 518.483 152.607 524.645 M329.858 524.645 L 329.858 530.806 323.697 530.806 L 317.536 530.806 317.536 536.493 L 317.536 542.180 311.848 542.180 L 306.161 542.180 306.161 547.867 L 306.161 553.555 300.000 553.555 L 293.839 553.555 293.839 559.716 L 293.839 565.877 288.152 565.877 L 282.464 565.877 282.464 571.564 L 282.464 577.251 276.303 577.251 L 270.142 577.251 270.142 583.412 L 270.142 589.573 264.455 589.573 L 258.768 589.573 258.768 595.261 L 258.768 600.948 253.081 600.948 L 247.393 600.948 247.393 607.109 L 247.393 613.270 241.232 613.270 L 235.071 613.270 235.071 618.957 L 235.071 624.645 241.232 624.645 L 247.393 624.645 247.393 618.957 L 247.393 613.270 253.081 613.270 L 258.768 613.270 258.768 607.109 L 258.768 600.948 264.455 600.948 L 270.142 600.948 270.142 595.261 L 270.142 589.573 276.303 589.573 L 282.464 589.573 282.464 583.412 L 282.464 577.251 288.152 577.251 L 293.839 577.251 293.839 571.564 L 293.839 565.877 300.000 565.877 L 306.161 565.877 306.161 559.716 L 306.161 553.555 311.848 553.555 L 317.536 553.555 317.536 547.867 L 317.536 542.180 323.697 542.180 L 329.858 542.180 329.858 536.493 L 329.858 530.806 335.545 530.806 L 341.232 530.806 341.232 524.645 L 341.232 518.483 335.545 518.483 L 329.858 518.483 329.858 524.645 M141.232 595.261 L 141.232 600.948 135.545 600.948 L 129.858 600.948 129.858 607.109 L 129.858 613.270 123.697 613.270 L 117.536 613.270 117.536 618.957 L 117.536 624.645 111.848 624.645 L 106.161 624.645 106.161 630.806 L 106.161 636.967 100.000 636.967 L 93.839 636.967 93.839 642.654 L 93.839 648.341 88.152 648.341 L 82.464 648.341 82.464 654.028 L 82.464 659.716 88.152 659.716 L 93.839 659.716 93.839 654.028 L 93.839 648.341 100.000 648.341 L 106.161 648.341 106.161 642.654 L 106.161 636.967 111.848 636.967 L 117.536 636.967 117.536 630.806 L 117.536 624.645 123.697 624.645 L 129.858 624.645 129.858 618.957 L 129.858 613.270 135.545 613.270 L 141.232 613.270 141.232 607.109 L 141.232 600.948 146.919 600.948 L 152.607 600.948 152.607 595.261 L 152.607 589.573 146.919 589.573 L 141.232 589.573 141.232 595.261 M317.536 595.261 L 317.536 600.948 311.848 600.948 L 306.161 600.948 306.161 607.109 L 306.161 613.270 300.000 613.270 L 293.839 613.270 293.839 618.957 L 293.839 624.645 288.152 624.645 L 282.464 624.645 282.464 630.806 L 282.464 636.967 276.303 636.967 L 270.142 636.967 270.142 642.654 L 270.142 648.341 264.455 648.341 L 258.768 648.341 258.768 654.028 L 258.768 659.716 264.455 659.716 L 270.142 659.716 270.142 654.028 L 270.142 648.341 276.303 648.341 L 282.464 648.341 282.464 642.654 L 282.464 636.967 288.152 636.967 L 293.839 636.967 293.839 630.806 L 293.839 624.645 300.000 624.645 L 306.161 624.645 306.161 618.957 L 306.161 613.270 311.848 613.270 L 317.536 613.270 317.536 607.109 L 317.536 600.948 323.697 600.948 L 329.858 600.948 329.858 595.261 L 329.858 589.573 323.697 589.573 L 317.536 589.573 317.536 595.261 M152.607 772.038 L 152.607 778.199 146.919 778.199 L 141.232 778.199 141.232 783.886 L 141.232 789.573 135.545 789.573 L 129.858 789.573 129.858 795.735 L 129.858 801.896 123.697 801.896 L 117.536 801.896 117.536 807.583 L 117.536 813.270 111.848 813.270 L 106.161 813.270 106.161 818.957 L 106.161 824.645 100.000 824.645 L 93.839 824.645 93.839 830.806 L 93.839 836.967 88.152 836.967 L 82.464 836.967 82.464 842.654 L 82.464 848.341 76.303 848.341 L 70.142 848.341 70.142 854.502 L 70.142 860.664 64.455 860.664 L 58.768 860.664 58.768 866.351 L 58.768 872.038 64.455 872.038 L 70.142 872.038 70.142 866.351 L 70.142 860.664 76.303 860.664 L 82.464 860.664 82.464 854.502 L 82.464 848.341 88.152 848.341 L 93.839 848.341 93.839 842.654 L 93.839 836.967 100.000 836.967 L 106.161 836.967 106.161 830.806 L 106.161 824.645 111.848 824.645 L 117.536 824.645 117.536 818.957 L 117.536 813.270 123.697 813.270 L 129.858 813.270 129.858 807.583 L 129.858 801.896 135.545 801.896 L 141.232 801.896 141.232 795.735 L 141.232 789.573 146.919 789.573 L 152.607 789.573 152.607 783.886 L 152.607 778.199 158.768 778.199 L 164.929 778.199 164.929 772.038 L 164.929 765.877 158.768 765.877 L 152.607 765.877 152.607 772.038 M329.858 772.038 L 329.858 778.199 323.697 778.199 L 317.536 778.199 317.536 783.886 L 317.536 789.573 311.848 789.573 L 306.161 789.573 306.161 795.735 L 306.161 801.896 300.000 801.896 L 293.839 801.896 293.839 807.583 L 293.839 813.270 288.152 813.270 L 282.464 813.270 282.464 818.912 L 282.464 824.554 276.540 824.836 L 270.616 825.118 270.334 831.043 L 270.052 836.967 264.410 836.967 L 258.768 836.967 258.768 842.654 L 258.768 848.341 253.081 848.341 L 247.393 848.341 247.393 854.502 L 247.393 860.664 241.232 860.664 L 235.071 860.664 235.071 866.351 L 235.071 872.038 241.232 872.038 L 247.393 872.038 247.393 866.351 L 247.393 860.664 253.081 860.664 L 258.768 860.664 258.768 854.502 L 258.768 848.341 264.455 848.341 L 270.142 848.341 270.142 842.654 L 270.142 836.967 276.303 836.967 L 282.464 836.967 282.464 830.806 L 282.464 824.645 288.152 824.645 L 293.839 824.645 293.839 818.957 L 293.839 813.270 300.000 813.270 L 306.161 813.270 306.161 807.583 L 306.161 801.896 311.848 801.896 L 317.536 801.896 317.536 795.735 L 317.536 789.573 323.697 789.573 L 329.858 789.573 329.858 783.886 L 329.858 778.199 335.545 778.199 L 341.232 778.199 341.232 772.038 L 341.232 765.877 335.545 765.877 L 329.858 765.877 329.858 772.038 M141.232 842.654 L 141.232 848.341 135.545 848.341 L 129.858 848.341 129.858 854.502 L 129.858 860.664 123.697 860.664 L 117.536 860.664 117.536 866.351 L 117.536 872.038 111.848 872.038 L 106.161 872.038 106.161 878.199 L 106.161 884.360 100.000 884.360 L 93.839 884.360 93.839 890.047 L 93.839 895.735 88.152 895.735 L 82.464 895.735 82.464 901.896 L 82.464 908.057 88.152 908.057 L 93.839 908.057 93.839 901.896 L 93.839 895.735 100.000 895.735 L 106.161 895.735 106.161 890.047 L 106.161 884.360 111.848 884.360 L 117.536 884.360 117.536 878.199 L 117.536 872.038 123.697 872.038 L 129.858 872.038 129.858 866.351 L 129.858 860.664 135.545 860.664 L 141.232 860.664 141.232 854.502 L 141.232 848.341 146.919 848.341 L 152.607 848.341 152.607 842.654 L 152.607 836.967 146.919 836.967 L 141.232 836.967 141.232 842.654 M317.536 842.654 L 317.536 848.341 311.848 848.341 L 306.161 848.341 306.161 854.502 L 306.161 860.664 300.000 860.664 L 293.839 860.664 293.839 866.351 L 293.839 872.038 288.152 872.038 L 282.464 872.038 282.464 878.199 L 282.464 884.360 276.303 884.360 L 270.142 884.360 270.142 890.047 L 270.142 895.735 264.455 895.735 L 258.768 895.735 258.768 901.896 L 258.768 908.057 264.455 908.057 L 270.142 908.057 270.142 901.896 L 270.142 895.735 276.303 895.735 L 282.464 895.735 282.464 890.047 L 282.464 884.360 288.152 884.360 L 293.839 884.360 293.839 878.199 L 293.839 872.038 300.000 872.038 L 306.161 872.038 306.161 866.351 L 306.161 860.664 311.848 860.664 L 317.536 860.664 317.536 854.502 L 317.536 848.341 323.697 848.341 L 329.858 848.341 329.858 842.654 L 329.858 836.967 323.697 836.967 L 317.536 836.967 317.536 842.654 M152.607 1019.431 L 152.607 1025.592 146.919 1025.592 L 141.232 1025.592 141.232 1031.280 L 141.232 1036.967 135.545 1036.967 L 129.858 1036.967 129.858 1043.128 L 129.858 1049.289 123.697 1049.289 L 117.536 1049.289 117.536 1054.976 L 117.536 1060.664 111.848 1060.664 L 106.161 1060.664 106.161 1066.825 L 106.161 1072.986 100.000 1072.986 L 93.839 1072.986 93.839 1078.673 L 93.839 1084.360 88.152 1084.360 L 82.464 1084.360 82.464 1090.002 L 82.464 1095.644 76.540 1095.926 L 70.616 1096.209 70.334 1102.133 L 70.052 1108.057 64.410 1108.057 L 58.768 1108.057 58.768 1113.744 L 58.768 1119.431 64.455 1119.431 L 70.142 1119.431 70.142 1113.744 L 70.142 1108.057 76.303 1108.057 L 82.464 1108.057 82.464 1101.896 L 82.464 1095.735 88.152 1095.735 L 93.839 1095.735 93.839 1090.047 L 93.839 1084.360 100.000 1084.360 L 106.161 1084.360 106.161 1078.673 L 106.161 1072.986 111.848 1072.986 L 117.536 1072.986 117.536 1066.825 L 117.536 1060.664 123.697 1060.664 L 129.858 1060.664 129.858 1054.976 L 129.858 1049.289 135.545 1049.289 L 141.232 1049.289 141.232 1043.128 L 141.232 1036.967 146.919 1036.967 L 152.607 1036.967 152.607 1031.280 L 152.607 1025.592 158.768 1025.592 L 164.929 1025.592 164.929 1019.431 L 164.929 1013.270 158.768 1013.270 L 152.607 1013.270 152.607 1019.431 M329.858 1019.431 L 329.858 1025.592 323.697 1025.592 L 317.536 1025.592 317.536 1031.280 L 317.536 1036.967 311.848 1036.967 L 306.161 1036.967 306.161 1043.128 L 306.161 1049.289 300.000 1049.289 L 293.839 1049.289 293.839 1054.976 L 293.839 1060.664 288.152 1060.664 L 282.464 1060.664 282.464 1066.825 L 282.464 1072.986 276.303 1072.986 L 270.142 1072.986 270.142 1078.673 L 270.142 1084.360 264.455 1084.360 L 258.768 1084.360 258.768 1090.047 L 258.768 1095.735 253.081 1095.735 L 247.393 1095.735 247.393 1101.896 L 247.393 1108.057 241.232 1108.057 L 235.071 1108.057 235.071 1113.744 L 235.071 1119.431 241.232 1119.431 L 247.393 1119.431 247.393 1113.744 L 247.393 1108.057 253.081 1108.057 L 258.768 1108.057 258.768 1101.896 L 258.768 1095.735 264.455 1095.735 L 270.142 1095.735 270.142 1090.047 L 270.142 1084.360 276.303 1084.360 L 282.464 1084.360 282.464 1078.673 L 282.464 1072.986 288.152 1072.986 L 293.839 1072.986 293.839 1066.825 L 293.839 1060.664 300.000 1060.664 L 306.161 1060.664 306.161 1054.976 L 306.161 1049.289 311.848 1049.289 L 317.536 1049.289 317.536 1043.128 L 317.536 1036.967 323.697 1036.967 L 329.858 1036.967 329.858 1031.280 L 329.858 1025.592 335.545 1025.592 L 341.232 1025.592 341.232 1019.431 L 341.232 1013.270 335.545 1013.270 L 329.858 1013.270 329.858 1019.431 M141.232 1090.047 L 141.232 1095.735 135.545 1095.735 L 129.858 1095.735 129.858 1101.896 L 129.858 1108.057 123.697 1108.057 L 117.536 1108.057 117.536 1113.744 L 117.536 1119.431 111.848 1119.431 L 106.161 1119.431 106.161 1125.592 L 106.161 1131.754 100.000 1131.754 L 93.839 1131.754 93.839 1137.441 L 93.839 1143.128 88.152 1143.128 L 82.464 1143.128 82.464 1149.289 L 82.464 1155.450 88.152 1155.450 L 93.839 1155.450 93.839 1149.289 L 93.839 1143.128 100.000 1143.128 L 106.161 1143.128 106.161 1137.441 L 106.161 1131.754 111.848 1131.754 L 117.536 1131.754 117.536 1125.592 L 117.536 1119.431 123.697 1119.431 L 129.858 1119.431 129.858 1113.744 L 129.858 1108.057 135.545 1108.057 L 141.232 1108.057 141.232 1101.896 L 141.232 1095.735 146.919 1095.735 L 152.607 1095.735 152.607 1090.047 L 152.607 1084.360 146.919 1084.360 L 141.232 1084.360 141.232 1090.047 M317.536 1090.047 L 317.536 1095.735 311.848 1095.735 L 306.161 1095.735 306.161 1101.896 L 306.161 1108.057 300.000 1108.057 L 293.839 1108.057 293.839 1113.744 L 293.839 1119.431 288.152 1119.431 L 282.464 1119.431 282.464 1125.592 L 282.464 1131.754 276.303 1131.754 L 270.142 1131.754 270.142 1137.441 L 270.142 1143.128 264.455 1143.128 L 258.768 1143.128 258.768 1149.289 L 258.768 1155.450 264.455 1155.450 L 270.142 1155.450 270.142 1149.289 L 270.142 1143.128 276.303 1143.128 L 282.464 1143.128 282.464 1137.441 L 282.464 1131.754 288.152 1131.754 L 293.839 1131.754 293.839 1125.592 L 293.839 1119.431 300.000 1119.431 L 306.161 1119.431 306.161 1113.744 L 306.161 1108.057 311.848 1108.057 L 317.536 1108.057 317.536 1101.896 L 317.536 1095.735 323.697 1095.735 L 329.858 1095.735 329.858 1090.047 L 329.858 1084.360 323.697 1084.360 L 317.536 1084.360 317.536 1090.047 M152.607 1267.299 L 152.607 1272.986 146.919 1272.986 L 141.232 1272.986 141.232 1278.673 L 141.232 1284.360 135.545 1284.360 L 129.858 1284.360 129.858 1290.521 L 129.858 1296.682 123.697 1296.682 L 117.536 1296.682 117.536 1302.370 L 117.536 1308.057 111.848 1308.057 L 106.161 1308.057 106.161 1314.218 L 106.161 1320.379 100.000 1320.379 L 93.839 1320.379 93.839 1326.066 L 93.839 1331.754 88.152 1331.754 L 82.464 1331.754 82.464 1337.915 L 82.464 1344.076 76.303 1344.076 L 70.142 1344.076 70.142 1349.763 L 70.142 1355.450 64.455 1355.450 L 58.768 1355.450 58.768 1361.611 L 58.768 1367.773 64.455 1367.773 L 70.142 1367.773 70.142 1361.611 L 70.142 1355.450 76.303 1355.450 L 82.464 1355.450 82.464 1349.763 L 82.464 1344.076 88.152 1344.076 L 93.839 1344.076 93.839 1337.915 L 93.839 1331.754 100.000 1331.754 L 106.161 1331.754 106.161 1326.066 L 106.161 1320.379 111.848 1320.379 L 117.536 1320.379 117.536 1314.218 L 117.536 1308.057 123.697 1308.057 L 129.858 1308.057 129.858 1302.370 L 129.858 1296.682 135.545 1296.682 L 141.232 1296.682 141.232 1290.521 L 141.232 1284.360 146.919 1284.360 L 152.607 1284.360 152.607 1278.673 L 152.607 1272.986 158.768 1272.986 L 164.929 1272.986 164.929 1267.299 L 164.929 1261.611 158.768 1261.611 L 152.607 1261.611 152.607 1267.299 M329.858 1267.299 L 329.858 1272.986 323.697 1272.986 L 317.536 1272.986 317.536 1278.673 L 317.536 1284.360 311.848 1284.360 L 306.161 1284.360 306.161 1290.521 L 306.161 1296.682 300.000 1296.682 L 293.839 1296.682 293.839 1302.370 L 293.839 1308.057 288.152 1308.057 L 282.464 1308.057 282.464 1314.218 L 282.464 1320.379 276.303 1320.379 L 270.142 1320.379 270.142 1326.066 L 270.142 1331.754 264.455 1331.754 L 258.768 1331.754 258.768 1337.915 L 258.768 1344.076 253.081 1344.076 L 247.393 1344.076 247.393 1349.763 L 247.393 1355.450 241.232 1355.450 L 235.071 1355.450 235.071 1361.611 L 235.071 1367.773 241.232 1367.773 L 247.393 1367.773 247.393 1361.611 L 247.393 1355.450 253.081 1355.450 L 258.768 1355.450 258.768 1349.763 L 258.768 1344.076 264.455 1344.076 L 270.142 1344.076 270.142 1337.915 L 270.142 1331.754 276.303 1331.754 L 282.464 1331.754 282.464 1326.066 L 282.464 1320.379 288.152 1320.379 L 293.839 1320.379 293.839 1314.218 L 293.839 1308.057 300.000 1308.057 L 306.161 1308.057 306.161 1302.370 L 306.161 1296.682 311.848 1296.682 L 317.536 1296.682 317.536 1290.521 L 317.536 1284.360 323.697 1284.360 L 329.858 1284.360 329.858 1278.673 L 329.858 1272.986 335.545 1272.986 L 341.232 1272.986 341.232 1267.299 L 341.232 1261.611 335.545 1261.611 L 329.858 1261.611 329.858 1267.299 M141.232 1337.915 L 141.232 1344.076 135.545 1344.076 L 129.858 1344.076 129.858 1349.763 L 129.858 1355.450 123.697 1355.450 L 117.536 1355.450 117.536 1361.137 L 117.536 1366.825 111.848 1366.825 L 106.161 1366.825 106.161 1372.986 L 106.161 1379.147 100.000 1379.147 L 93.839 1379.147 93.839 1384.834 L 93.839 1390.521 88.152 1390.521 L 82.464 1390.521 82.464 1396.682 L 82.464 1402.844 88.152 1402.844 L 93.839 1402.844 93.839 1396.682 L 93.839 1390.521 100.000 1390.521 L 106.161 1390.521 106.161 1384.834 L 106.161 1379.147 111.848 1379.147 L 117.536 1379.147 117.536 1373.505 L 117.536 1367.863 123.460 1367.581 L 129.384 1367.299 129.666 1361.374 L 129.948 1355.450 135.590 1355.450 L 141.232 1355.450 141.232 1349.763 L 141.232 1344.076 146.919 1344.076 L 152.607 1344.076 152.607 1337.915 L 152.607 1331.754 146.919 1331.754 L 141.232 1331.754 141.232 1337.915 M317.536 1337.915 L 317.536 1344.076 311.848 1344.076 L 306.161 1344.076 306.161 1349.763 L 306.161 1355.450 300.000 1355.450 L 293.839 1355.450 293.839 1361.137 L 293.839 1366.825 288.152 1366.825 L 282.464 1366.825 282.464 1372.986 L 282.464 1379.147 276.303 1379.147 L 270.142 1379.147 270.142 1384.834 L 270.142 1390.521 264.455 1390.521 L 258.768 1390.521 258.768 1396.682 L 258.768 1402.844 264.455 1402.844 L 270.142 1402.844 270.142 1396.682 L 270.142 1390.521 276.303 1390.521 L 282.464 1390.521 282.464 1384.834 L 282.464 1379.147 288.152 1379.147 L 293.839 1379.147 293.839 1373.460 L 293.839 1367.773 300.000 1367.773 L 306.161 1367.773 306.161 1361.611 L 306.161 1355.450 311.848 1355.450 L 317.536 1355.450 317.536 1349.763 L 317.536 1344.076 323.697 1344.076 L 329.858 1344.076 329.858 1337.915 L 329.858 1331.754 323.697 1331.754 L 317.536 1331.754 317.536 1337.915 M152.607 1514.692 L 152.607 1520.379 146.919 1520.379 L 141.232 1520.379 141.232 1526.540 L 141.232 1532.701 135.545 1532.701 L 129.858 1532.701 129.858 1538.389 L 129.858 1544.076 123.697 1544.076 L 117.536 1544.076 117.536 1549.763 L 117.536 1555.450 111.848 1555.450 L 106.161 1555.450 106.161 1561.611 L 106.161 1567.773 100.000 1567.773 L 93.839 1567.773 93.839 1573.460 L 93.839 1579.147 88.152 1579.147 L 82.464 1579.147 82.464 1585.308 L 82.464 1591.469 76.303 1591.469 L 70.142 1591.469 70.142 1597.156 L 70.142 1602.844 64.455 1602.844 L 58.768 1602.844 58.768 1609.005 L 58.768 1615.166 64.455 1615.166 L 70.142 1615.166 70.142 1609.005 L 70.142 1602.844 76.303 1602.844 L 82.464 1602.844 82.464 1597.156 L 82.464 1591.469 88.152 1591.469 L 93.839 1591.469 93.839 1585.308 L 93.839 1579.147 100.000 1579.147 L 106.161 1579.147 106.161 1573.460 L 106.161 1567.773 111.848 1567.773 L 117.536 1567.773 117.536 1561.611 L 117.536 1555.450 123.697 1555.450 L 129.858 1555.450 129.858 1549.763 L 129.858 1544.076 135.545 1544.076 L 141.232 1544.076 141.232 1538.389 L 141.232 1532.701 146.919 1532.701 L 152.607 1532.701 152.607 1526.540 L 152.607 1520.379 158.768 1520.379 L 164.929 1520.379 164.929 1514.692 L 164.929 1509.005 158.768 1509.005 L 152.607 1509.005 152.607 1514.692 M329.858 1514.692 L 329.858 1520.379 323.697 1520.379 L 317.536 1520.379 317.536 1526.540 L 317.536 1532.701 311.848 1532.701 L 306.161 1532.701 306.161 1538.389 L 306.161 1544.076 300.000 1544.076 L 293.839 1544.076 293.839 1549.763 L 293.839 1555.450 288.152 1555.450 L 282.464 1555.450 282.464 1561.611 L 282.464 1567.773 276.303 1567.773 L 270.142 1567.773 270.142 1573.460 L 270.142 1579.147 264.455 1579.147 L 258.768 1579.147 258.768 1585.308 L 258.768 1591.469 253.081 1591.469 L 247.393 1591.469 247.393 1597.156 L 247.393 1602.844 241.232 1602.844 L 235.071 1602.844 235.071 1609.005 L 235.071 1615.166 241.232 1615.166 L 247.393 1615.166 247.393 1609.005 L 247.393 1602.844 253.081 1602.844 L 258.768 1602.844 258.768 1597.156 L 258.768 1591.469 264.455 1591.469 L 270.142 1591.469 270.142 1585.308 L 270.142 1579.147 276.303 1579.147 L 282.464 1579.147 282.464 1573.460 L 282.464 1567.773 288.152 1567.773 L 293.839 1567.773 293.839 1561.611 L 293.839 1555.450 300.000 1555.450 L 306.161 1555.450 306.161 1549.763 L 306.161 1544.076 311.848 1544.076 L 317.536 1544.076 317.536 1538.389 L 317.536 1532.701 323.697 1532.701 L 329.858 1532.701 329.858 1526.540 L 329.858 1520.379 335.545 1520.379 L 341.232 1520.379 341.232 1514.692 L 341.232 1509.005 335.545 1509.005 L 329.858 1509.005 329.858 1514.692 M141.232 1585.308 L 141.232 1591.469 135.545 1591.469 L 129.858 1591.469 129.858 1597.156 L 129.858 1602.844 123.697 1602.844 L 117.536 1602.844 117.536 1609.005 L 117.536 1615.166 111.848 1615.166 L 106.161 1615.166 106.161 1620.853 L 106.161 1626.540 100.000 1626.540 L 93.839 1626.540 93.839 1632.227 L 93.839 1637.915 88.152 1637.915 L 82.464 1637.915 82.464 1644.076 L 82.464 1650.237 88.152 1650.237 L 93.839 1650.237 93.839 1644.550 L 93.839 1638.863 100.000 1638.863 L 106.161 1638.863 106.161 1632.701 L 106.161 1626.540 111.848 1626.540 L 117.536 1626.540 117.536 1620.853 L 117.536 1615.166 123.697 1615.166 L 129.858 1615.166 129.858 1609.005 L 129.858 1602.844 135.545 1602.844 L 141.232 1602.844 141.232 1597.156 L 141.232 1591.469 146.919 1591.469 L 152.607 1591.469 152.607 1585.308 L 152.607 1579.147 146.919 1579.147 L 141.232 1579.147 141.232 1585.308 M317.536 1585.308 L 317.536 1591.469 311.848 1591.469 L 306.161 1591.469 306.161 1597.156 L 306.161 1602.844 300.000 1602.844 L 293.839 1602.844 293.839 1609.005 L 293.839 1615.166 288.152 1615.166 L 282.464 1615.166 282.464 1620.853 L 282.464 1626.540 276.303 1626.540 L 270.142 1626.540 270.142 1632.227 L 270.142 1637.915 264.455 1637.915 L 258.768 1637.915 258.768 1644.076 L 258.768 1650.237 264.455 1650.237 L 270.142 1650.237 270.142 1644.550 L 270.142 1638.863 276.303 1638.863 L 282.464 1638.863 282.464 1632.701 L 282.464 1626.540 288.152 1626.540 L 293.839 1626.540 293.839 1620.853 L 293.839 1615.166 300.000 1615.166 L 306.161 1615.166 306.161 1609.005 L 306.161 1602.844 311.848 1602.844 L 317.536 1602.844 317.536 1597.156 L 317.536 1591.469 323.697 1591.469 L 329.858 1591.469 329.858 1585.308 L 329.858 1579.147 323.697 1579.147 L 317.536 1579.147 317.536 1585.308 M152.607 1762.085 L 152.607 1767.773 146.919 1767.773 L 141.232 1767.773 141.232 1773.934 L 141.232 1780.095 135.545 1780.095 L 129.858 1780.095 129.858 1785.782 L 129.858 1791.469 123.697 1791.469 L 117.536 1791.469 117.536 1797.630 L 117.536 1803.791 111.848 1803.791 L 106.161 1803.791 106.161 1809.479 L 106.161 1815.166 100.000 1815.166 L 93.839 1815.166 93.839 1820.853 L 93.839 1826.540 88.152 1826.540 L 82.464 1826.540 82.464 1832.701 L 82.464 1838.863 76.303 1838.863 L 70.142 1838.863 70.142 1844.550 L 70.142 1850.237 64.455 1850.237 L 58.768 1850.237 58.768 1856.398 L 58.768 1862.559 64.455 1862.559 L 70.142 1862.559 70.142 1856.398 L 70.142 1850.237 76.303 1850.237 L 82.464 1850.237 82.464 1844.550 L 82.464 1838.863 88.152 1838.863 L 93.839 1838.863 93.839 1832.701 L 93.839 1826.540 100.000 1826.540 L 106.161 1826.540 106.161 1820.853 L 106.161 1815.166 111.848 1815.166 L 117.536 1815.166 117.536 1809.479 L 117.536 1803.791 123.697 1803.791 L 129.858 1803.791 129.858 1797.630 L 129.858 1791.469 135.545 1791.469 L 141.232 1791.469 141.232 1785.782 L 141.232 1780.095 146.919 1780.095 L 152.607 1780.095 152.607 1773.934 L 152.607 1767.773 158.768 1767.773 L 164.929 1767.773 164.929 1762.085 L 164.929 1756.398 158.768 1756.398 L 152.607 1756.398 152.607 1762.085 M329.858 1762.085 L 329.858 1767.773 323.697 1767.773 L 317.536 1767.773 317.536 1773.934 L 317.536 1780.095 311.848 1780.095 L 306.161 1780.095 306.161 1785.782 L 306.161 1791.469 300.000 1791.469 L 293.839 1791.469 293.839 1797.630 L 293.839 1803.791 288.152 1803.791 L 282.464 1803.791 282.464 1809.479 L 282.464 1815.166 276.303 1815.166 L 270.142 1815.166 270.142 1820.853 L 270.142 1826.540 264.455 1826.540 L 258.768 1826.540 258.768 1832.701 L 258.768 1838.863 253.081 1838.863 L 247.393 1838.863 247.393 1844.550 L 247.393 1850.237 241.232 1850.237 L 235.071 1850.237 235.071 1856.398 L 235.071 1862.559 241.232 1862.559 L 247.393 1862.559 247.393 1856.398 L 247.393 1850.237 253.081 1850.237 L 258.768 1850.237 258.768 1844.550 L 258.768 1838.863 264.455 1838.863 L 270.142 1838.863 270.142 1832.701 L 270.142 1826.540 276.303 1826.540 L 282.464 1826.540 282.464 1820.853 L 282.464 1815.166 288.152 1815.166 L 293.839 1815.166 293.839 1809.479 L 293.839 1803.791 300.000 1803.791 L 306.161 1803.791 306.161 1797.630 L 306.161 1791.469 311.848 1791.469 L 317.536 1791.469 317.536 1785.782 L 317.536 1780.095 323.697 1780.095 L 329.858 1780.095 329.858 1773.934 L 329.858 1767.773 335.545 1767.773 L 341.232 1767.773 341.232 1762.085 L 341.232 1756.398 335.545 1756.398 L 329.858 1756.398 329.858 1762.085 M141.232 1832.701 L 141.232 1838.863 135.545 1838.863 L 129.858 1838.863 129.858 1844.550 L 129.858 1850.237 123.697 1850.237 L 117.536 1850.237 117.536 1856.398 L 117.536 1862.559 111.848 1862.559 L 106.161 1862.559 106.161 1868.246 L 106.161 1873.934 100.000 1873.934 L 93.839 1873.934 93.839 1880.095 L 93.839 1886.256 88.152 1886.256 L 82.464 1886.256 82.464 1891.943 L 82.464 1897.630 88.152 1897.630 L 93.839 1897.630 93.839 1891.943 L 93.839 1886.256 100.000 1886.256 L 106.161 1886.256 106.161 1880.095 L 106.161 1873.934 111.848 1873.934 L 117.536 1873.934 117.536 1868.246 L 117.536 1862.559 123.697 1862.559 L 129.858 1862.559 129.858 1856.398 L 129.858 1850.237 135.545 1850.237 L 141.232 1850.237 141.232 1844.550 L 141.232 1838.863 146.919 1838.863 L 152.607 1838.863 152.607 1832.701 L 152.607 1826.540 146.919 1826.540 L 141.232 1826.540 141.232 1832.701 M317.536 1832.656 L 317.536 1838.863 311.848 1838.863 L 306.161 1838.863 306.161 1844.550 L 306.161 1850.237 300.000 1850.237 L 293.839 1850.237 293.839 1856.398 L 293.839 1862.559 288.152 1862.559 L 282.464 1862.559 282.464 1868.246 L 282.464 1873.934 276.303 1873.934 L 270.142 1873.934 270.142 1880.095 L 270.142 1886.256 264.455 1886.256 L 258.768 1886.256 258.768 1891.943 L 258.768 1897.630 264.455 1897.630 L 270.142 1897.630 270.142 1891.943 L 270.142 1886.256 276.303 1886.256 L 282.464 1886.256 282.464 1880.095 L 282.464 1873.934 288.152 1873.934 L 293.839 1873.934 293.839 1868.246 L 293.839 1862.559 300.000 1862.559 L 306.161 1862.559 306.161 1856.398 L 306.161 1850.237 311.848 1850.237 L 317.536 1850.237 317.536 1844.550 L 317.536 1838.863 323.742 1838.863 L 329.948 1838.863 329.666 1832.938 L 329.384 1827.014 323.460 1826.732 L 317.536 1826.450 317.536 1832.656 M152.607 1998.104 L 152.607 2003.791 146.919 2003.791 L 141.232 2003.791 141.232 2009.479 L 141.232 2015.166 135.545 2015.166 L 129.858 2015.166 129.858 2021.327 L 129.858 2027.488 123.697 2027.488 L 117.536 2027.488 117.536 2033.175 L 117.536 2038.863 111.848 2038.863 L 106.161 2038.863 106.161 2045.024 L 106.161 2051.185 100.000 2051.185 L 93.839 2051.185 93.839 2056.872 L 93.839 2062.559 88.152 2062.559 L 82.464 2062.559 82.464 2068.720 L 82.464 2074.882 76.303 2074.882 L 70.142 2074.882 70.142 2080.569 L 70.142 2086.256 64.455 2086.256 L 58.768 2086.256 58.768 2091.943 L 58.768 2097.630 64.455 2097.630 L 70.142 2097.630 70.142 2091.943 L 70.142 2086.256 76.303 2086.256 L 82.464 2086.256 82.464 2080.569 L 82.464 2074.882 88.152 2074.882 L 93.839 2074.882 93.839 2068.720 L 93.839 2062.559 100.000 2062.559 L 106.161 2062.559 106.161 2056.872 L 106.161 2051.185 111.848 2051.185 L 117.536 2051.185 117.536 2045.024 L 117.536 2038.863 123.697 2038.863 L 129.858 2038.863 129.858 2033.175 L 129.858 2027.488 135.545 2027.488 L 141.232 2027.488 141.232 2021.327 L 141.232 2015.166 146.919 2015.166 L 152.607 2015.166 152.607 2009.479 L 152.607 2003.791 158.768 2003.791 L 164.929 2003.791 164.929 1998.104 L 164.929 1992.417 158.768 1992.417 L 152.607 1992.417 152.607 1998.104 M329.858 1998.104 L 329.858 2003.791 323.697 2003.791 L 317.536 2003.791 317.536 2009.479 L 317.536 2015.166 311.848 2015.166 L 306.161 2015.166 306.161 2021.327 L 306.161 2027.488 300.000 2027.488 L 293.839 2027.488 293.839 2033.175 L 293.839 2038.863 288.152 2038.863 L 282.464 2038.863 282.464 2045.024 L 282.464 2051.185 276.303 2051.185 L 270.142 2051.185 270.142 2056.872 L 270.142 2062.559 264.455 2062.559 L 258.768 2062.559 258.768 2068.720 L 258.768 2074.882 253.081 2074.882 L 247.393 2074.882 247.393 2080.569 L 247.393 2086.256 241.232 2086.256 L 235.071 2086.256 235.071 2091.943 L 235.071 2097.630 241.232 2097.630 L 247.393 2097.630 247.393 2091.943 L 247.393 2086.256 253.081 2086.256 L 258.768 2086.256 258.768 2080.569 L 258.768 2074.882 264.455 2074.882 L 270.142 2074.882 270.142 2068.720 L 270.142 2062.559 276.303 2062.559 L 282.464 2062.559 282.464 2056.872 L 282.464 2051.185 288.152 2051.185 L 293.839 2051.185 293.839 2045.024 L 293.839 2038.863 300.000 2038.863 L 306.161 2038.863 306.161 2033.175 L 306.161 2027.488 311.848 2027.488 L 317.536 2027.488 317.536 2021.327 L 317.536 2015.166 323.697 2015.166 L 329.858 2015.166 329.858 2009.479 L 329.858 2003.791 335.545 2003.791 L 341.232 2003.791 341.232 1998.104 L 341.232 1992.417 335.545 1992.417 L 329.858 1992.417 329.858 1998.104 M141.232 2068.720 L 141.232 2074.882 135.545 2074.882 L 129.858 2074.882 129.858 2080.569 L 129.858 2086.256 123.697 2086.256 L 117.536 2086.256 117.536 2091.943 L 117.536 2097.630 111.848 2097.630 L 106.161 2097.630 106.161 2103.791 L 106.161 2109.953 100.000 2109.953 L 93.839 2109.953 93.839 2115.640 L 93.839 2121.327 88.152 2121.327 L 82.464 2121.327 82.464 2127.488 L 82.464 2133.649 88.152 2133.649 L 93.839 2133.649 93.839 2127.488 L 93.839 2121.327 100.000 2121.327 L 106.161 2121.327 106.161 2115.640 L 106.161 2109.953 111.848 2109.953 L 117.536 2109.953 117.536 2103.791 L 117.536 2097.630 123.697 2097.630 L 129.858 2097.630 129.858 2091.943 L 129.858 2086.256 135.545 2086.256 L 141.232 2086.256 141.232 2080.569 L 141.232 2074.882 146.919 2074.882 L 152.607 2074.882 152.607 2068.720 L 152.607 2062.559 146.919 2062.559 L 141.232 2062.559 141.232 2068.720 M317.536 2068.720 L 317.536 2074.882 311.848 2074.882 L 306.161 2074.882 306.161 2080.569 L 306.161 2086.256 300.000 2086.256 L 293.839 2086.256 293.839 2091.943 L 293.839 2097.630 288.152 2097.630 L 282.464 2097.630 282.464 2103.791 L 282.464 2109.953 276.303 2109.953 L 270.142 2109.953 270.142 2115.640 L 270.142 2121.327 264.455 2121.327 L 258.768 2121.327 258.768 2127.488 L 258.768 2133.649 264.455 2133.649 L 270.142 2133.649 270.142 2127.488 L 270.142 2121.327 276.303 2121.327 L 282.464 2121.327 282.464 2115.640 L 282.464 2109.953 288.152 2109.953 L 293.839 2109.953 293.839 2103.791 L 293.839 2097.630 300.000 2097.630 L 306.161 2097.630 306.161 2091.943 L 306.161 2086.256 311.848 2086.256 L 317.536 2086.256 317.536 2080.569 L 317.536 2074.882 323.697 2074.882 L 329.858 2074.882 329.858 2068.720 L 329.858 2062.559 323.697 2062.559 L 317.536 2062.559 317.536 2068.720 M152.607 2221.801 L 152.607 2227.488 146.919 2227.488 L 141.232 2227.488 141.232 2233.649 L 141.232 2239.810 135.545 2239.810 L 129.858 2239.810 129.858 2245.498 L 129.858 2251.185 123.697 2251.185 L 117.536 2251.185 117.536 2257.346 L 117.536 2263.507 111.848 2263.507 L 106.161 2263.507 106.161 2269.194 L 106.161 2274.882 111.848 2274.882 L 117.536 2274.882 117.536 2269.240 L 117.536 2263.598 123.460 2263.315 L 129.384 2263.033 129.666 2257.109 L 129.948 2251.185 135.590 2251.185 L 141.232 2251.185 141.232 2245.498 L 141.232 2239.810 146.919 2239.810 L 152.607 2239.810 152.607 2233.649 L 152.607 2227.488 158.768 2227.488 L 164.929 2227.488 164.929 2221.801 L 164.929 2216.114 158.768 2216.114 L 152.607 2216.114 152.607 2221.801 M329.858 2221.801 L 329.858 2227.488 323.697 2227.488 L 317.536 2227.488 317.536 2233.649 L 317.536 2239.810 311.848 2239.810 L 306.161 2239.810 306.161 2245.498 L 306.161 2251.185 300.000 2251.185 L 293.839 2251.185 293.839 2257.346 L 293.839 2263.507 288.152 2263.507 L 282.464 2263.507 282.464 2269.194 L 282.464 2274.882 288.152 2274.882 L 293.839 2274.882 293.839 2269.194 L 293.839 2263.507 300.000 2263.507 L 306.161 2263.507 306.161 2257.346 L 306.161 2251.185 311.848 2251.185 L 317.536 2251.185 317.536 2245.498 L 317.536 2239.810 323.697 2239.810 L 329.858 2239.810 329.858 2233.649 L 329.858 2227.488 335.545 2227.488 L 341.232 2227.488 341.232 2221.801 L 341.232 2216.114 335.545 2216.114 L 329.858 2216.114 329.858 2221.801 " stroke="none" fill="#ccf4fc" fill-rule="evenodd"/><path id="path2" d="M0.000 1137.441 L 0.000 2274.882 23.697 2274.882 L 47.393 2274.882 47.393 2239.336 L 47.393 2203.791 111.848 2203.791 L 176.303 2203.791 176.303 2239.336 L 176.303 2274.882 200.000 2274.882 L 223.697 2274.882 223.697 2239.336 L 223.697 2203.791 288.152 2203.791 L 352.607 2203.791 352.607 2239.336 L 352.607 2274.882 376.303 2274.882 L 400.000 2274.882 400.000 1137.441 L 400.000 0.000 200.000 0.000 L 0.000 0.000 0.000 1137.441 M176.303 135.545 L 176.303 223.697 111.848 223.697 L 47.393 223.697 47.393 135.545 L 47.393 47.393 111.848 47.393 L 176.303 47.393 176.303 135.545 M352.607 135.545 L 352.607 223.697 288.152 223.697 L 223.697 223.697 223.697 135.545 L 223.697 47.393 288.152 47.393 L 352.607 47.393 352.607 135.545 M176.303 365.403 L 176.303 459.716 111.848 459.716 L 47.393 459.716 47.393 365.403 L 47.393 271.090 111.848 271.090 L 176.303 271.090 176.303 365.403 M352.607 365.403 L 352.607 459.716 288.152 459.716 L 223.697 459.716 223.697 365.403 L 223.697 271.090 288.152 271.090 L 352.607 271.090 352.607 365.403 M176.303 607.109 L 176.303 707.109 111.848 707.109 L 47.393 707.109 47.393 607.109 L 47.393 507.109 111.848 507.109 L 176.303 507.109 176.303 607.109 M352.607 607.109 L 352.607 707.109 288.152 707.109 L 223.697 707.109 223.697 607.109 L 223.697 507.109 288.152 507.109 L 352.607 507.109 352.607 607.109 M176.303 854.502 L 176.303 954.502 111.848 954.502 L 47.393 954.502 47.393 854.502 L 47.393 754.502 111.848 754.502 L 176.303 754.502 176.303 854.502 M352.607 854.502 L 352.607 954.502 288.152 954.502 L 223.697 954.502 223.697 854.502 L 223.697 754.502 288.152 754.502 L 352.607 754.502 352.607 854.502 M176.303 1101.896 L 176.303 1201.896 111.848 1201.896 L 47.393 1201.896 47.393 1101.896 L 47.393 1001.896 111.848 1001.896 L 176.303 1001.896 176.303 1101.896 M352.607 1101.896 L 352.607 1201.896 288.152 1201.896 L 223.697 1201.896 223.697 1101.896 L 223.697 1001.896 288.152 1001.896 L 352.607 1001.896 352.607 1101.896 M176.303 1349.763 L 176.303 1450.237 111.848 1450.237 L 47.393 1450.237 47.393 1349.763 L 47.393 1249.289 111.848 1249.289 L 176.303 1249.289 176.303 1349.763 M352.607 1349.763 L 352.607 1450.237 288.152 1450.237 L 223.697 1450.237 223.697 1349.763 L 223.697 1249.289 288.152 1249.289 L 352.607 1249.289 352.607 1349.763 M176.303 1597.156 L 176.303 1697.630 111.848 1697.630 L 47.393 1697.630 47.393 1597.156 L 47.393 1496.682 111.848 1496.682 L 176.303 1496.682 176.303 1597.156 M352.607 1597.156 L 352.607 1697.630 288.152 1697.630 L 223.697 1697.630 223.697 1597.156 L 223.697 1496.682 288.152 1496.682 L 352.607 1496.682 352.607 1597.156 M176.303 1838.389 L 176.303 1932.701 111.848 1932.701 L 47.393 1932.701 47.393 1838.389 L 47.393 1744.076 111.848 1744.076 L 176.303 1744.076 176.303 1838.389 M352.607 1838.389 L 352.607 1932.701 288.152 1932.701 L 223.697 1932.701 223.697 1838.389 L 223.697 1744.076 288.152 1744.076 L 352.607 1744.076 352.607 1838.389 M176.303 2068.720 L 176.303 2157.346 111.848 2157.346 L 47.393 2157.346 47.393 2068.720 L 47.393 1980.095 111.848 1980.095 L 176.303 1980.095 176.303 2068.720 M352.607 2068.720 L 352.607 2157.346 288.152 2157.346 L 223.697 2157.346 223.697 2068.720 L 223.697 1980.095 288.152 1980.095 L 352.607 1980.095 352.607 2068.720 " stroke="none" fill="#2494f4" fill-rule="evenodd"/></g></svg>